<?xml version="1.0" encoding="utf-8"?>
<!-- Generator: Adobe Illustrator 18.1.1, SVG Export Plug-In . SVG Version: 6.00 Build 0)  -->
<svg version="1.1" id="Слой_1" xmlns="http://www.w3.org/2000/svg" xmlns:xlink="http://www.w3.org/1999/xlink" x="0px" y="0px"
	 viewBox="0 0 768 768" enable-background="new 0 0 768 768" xml:space="preserve">
<rect fill="#010101" width="768" height="768"/>
<g>
	<rect x="128" y="512" fill="#2F2F82" width="128" height="128"/>
	<path fill="#FFFFFF" d="M512,640c0,0-85-2.8-128-78.7C354,508.4,256,512,256,512V384c0,0,98.1-3.5,128,49.3
		c43,75.9,128,78.7,128,78.7V640z"/>
	<polygon fill="#FFFFFF" points="128,128 128,256 128,384 256,384 256,256 256,128 	"/>
	<g>
		<path fill="#FFFFFF" d="M326.5,385.9c-17.1,0-30.7-5.3-40.8-16c-10.1-10.6-15.1-23.1-15.1-37.5c0-15.4,5.2-28.2,15.8-38.5
			c10.5-10.3,24.2-15.4,41-15.4c17,0,30.6,5.1,40.9,15.2c10.3,10.1,15.5,22.8,15.5,38.1c0,15.4-5.2,28.3-15.7,38.6
			C357.6,380.8,343.8,385.9,326.5,385.9z M327.1,361.4c6.3,0,10.1-3.3,11.5-9.8c1.4-6.5,2.1-13.3,2.1-20.4c0-9.7-1-16.6-2.9-20.9
			c-2-4.2-5.5-6.4-10.6-6.4c-4.7,0-8.1,2.2-10.3,6.6c-2.2,4.4-3.2,11.6-3.2,21.7c0,11.8,1.1,19.7,3.3,23.5
			C319.2,359.4,322.6,361.4,327.1,361.4z"/>
		<path fill="#FFFFFF" d="M506.9,257.3l-1,27.7l-1.9-0.1c-3.6-0.2-6.2-0.3-7.8-0.3c-6.3,0-10.1,1.2-11.3,3.8
			c7.7,6.3,11.6,14,11.6,23c0,10.6-4.2,18.5-12.5,23.8c-8.3,5.3-19.7,7.9-34,7.9c-0.3,0-2.1-0.1-5.3-0.2c-3-0.1-4.5-0.2-4.7-0.2
			c-6.6,0-9.8,1.7-9.8,5.1c0,3,2.9,4.6,8.7,4.8l33.2,1.4c12.1,0.5,21,3.9,26.6,10.1c5.6,6.2,8.5,13.5,8.5,21.8
			c0,9.9-4.2,17.9-12.6,24.2c-8.4,6.2-24.8,9.4-49.1,9.4c-37.5,0-56.3-8.6-56.3-25.8c0-9.4,5-16,14.9-19.7
			c-6.4-4.5-9.6-9.9-9.6-16.1c0-10.1,6.6-17.8,19.8-22.9c-11-4.8-16.5-12.8-16.5-23.9c0-10.2,4.5-18.1,13.4-23.8
			c8.9-5.7,21.2-8.5,36.7-8.5c7.1,0,13.6,0.7,19.4,2.1c2.4-16.2,10.9-24.2,25.7-24.2C496.1,256.5,500.8,256.7,506.9,257.3z
			 M437.4,382.5c-1.5-0.1-3-0.1-4.5-0.1c-7,0-10.4,2.2-10.4,6.5c0,4,2.6,6.6,7.9,7.7c5.3,1.2,12.4,1.7,21.2,1.7
			c8.4,0,13.8-0.7,16.2-2.1c2.4-1.4,3.6-3.4,3.6-5.9c0-1.8-0.5-3.2-1.6-4.4s-3.6-1.9-7.7-2.1L437.4,382.5z M447.7,323.9
			c7.9,0,11.8-4.2,11.8-12.5c0-8.5-4-12.8-12.1-12.8c-8,0-12,4.3-12,13C435.5,319.8,439.6,323.9,447.7,323.9z"/>
		<path fill="#FFFFFF" d="M568.1,385.9c-17.1,0-30.7-5.3-40.8-16c-10.1-10.6-15.1-23.1-15.1-37.5c0-15.4,5.2-28.2,15.8-38.5
			c10.5-10.3,24.2-15.4,41-15.4c17,0,30.6,5.1,40.9,15.2c10.3,10.1,15.5,22.8,15.5,38.1c0,15.4-5.2,28.3-15.7,38.6
			C599.3,380.8,585.4,385.9,568.1,385.9z M568.7,361.4c6.3,0,10.1-3.3,11.5-9.8s2.1-13.3,2.1-20.4c0-9.7-1-16.6-2.9-20.9
			c-2-4.2-5.5-6.4-10.6-6.4c-4.7,0-8.1,2.2-10.3,6.6c-2.2,4.4-3.2,11.6-3.2,21.7c0,11.8,1.1,19.7,3.3,23.5
			C560.8,359.4,564.2,361.4,568.7,361.4z"/>
	</g>
	<polygon fill="#FDEC0A" points="640,128 640,512 512,512 512,640 640,640 768,640 768,0 	"/>
	<polygon fill="#BE2026" points="640,128 128,128 128,0 768,0 	"/>
</g>
</svg>
