<?xml version="1.0" encoding="UTF-8" standalone="no"?>
<!-- Generator: Adobe Illustrator 18.1.1, SVG Export Plug-In . SVG Version: 6.00 Build 0)  -->

<svg
   xmlns:dc="http://purl.org/dc/elements/1.1/"
   xmlns:cc="http://creativecommons.org/ns#"
   xmlns:rdf="http://www.w3.org/1999/02/22-rdf-syntax-ns#"
   xmlns:svg="http://www.w3.org/2000/svg"
   xmlns="http://www.w3.org/2000/svg"
   xmlns:sodipodi="http://sodipodi.sourceforge.net/DTD/sodipodi-0.dtd"
   xmlns:inkscape="http://www.inkscape.org/namespaces/inkscape"
   version="1.1"
   id="Слой_1"
   x="0px"
   y="0px"
   viewBox="0 0 768 768"
   enable-background="new 0 0 768 768"
   xml:space="preserve"
   sodipodi:docname="blog.svg"
   inkscape:version="0.92.5 (2060ec1f9f, 2020-04-08)"><metadata
   id="metadata4103"><rdf:RDF><cc:Work
       rdf:about=""><dc:format>image/svg+xml</dc:format><dc:type
         rdf:resource="http://purl.org/dc/dcmitype/StillImage" /></cc:Work></rdf:RDF></metadata><defs
   id="defs4101" /><sodipodi:namedview
   pagecolor="#ffffff"
   bordercolor="#666666"
   borderopacity="1"
   objecttolerance="10"
   gridtolerance="10"
   guidetolerance="10"
   inkscape:pageopacity="0"
   inkscape:pageshadow="2"
   inkscape:window-width="1920"
   inkscape:window-height="1171"
   id="namedview4099"
   showgrid="false"
   inkscape:zoom="1.2552083"
   inkscape:cx="384"
   inkscape:cy="384"
   inkscape:window-x="3840"
   inkscape:window-y="0"
   inkscape:window-maximized="1"
   inkscape:current-layer="Слой_1" />
<text
   transform="matrix(1 0 0 1 204.9619 433.0144)"
   fill="#FFFFFF"
   font-family="'FranklinGothic-Heavy'"
   font-size="180"
   id="text4036">Text</text>

<g
   id="g4042">
	<g
   id="g4040">
		<rect
   x="30"
   y="206"
   fill="#010101"
   width="709.5"
   height="355.9"
   id="rect4038" />
	</g>
</g>
<rect
   x="384.7"
   y="323.3"
   fill="#FFFFFF"
   width="179.2"
   height="179.2"
   id="rect4044" />
<polygon
   fill="#2F2F82"
   points="563.9,502.6 623.4,502.6 623.4,382.8 563.9,323.3 "
   id="polygon4046" />
<rect
   x="146"
   y="263.9"
   fill="#FDEC0A"
   width="179.2"
   height="179.2"
   id="rect4048" />
<polygon
   fill="#2F2F82"
   points="563.9,502.6 623.4,562 623.4,382.8 563.9,323.3 "
   id="polygon4050" />
<polygon
   fill="#BE2026"
   points="325.3,443.1 384.7,502.6 384.7,323.3 325.3,263.9 "
   id="polygon4052" />
<path
   fill="#010101"
   d="M563.9,502.6c0,0-16,0-14,0v-25.9c-3.9,1-7.2,1.5-10,1.5c-1.8,0-3.6-0.4-5.3-1.3c-1.7-0.8-2.5-3.5-2.5-8v-33  h17.8v-22.8h-17.8v-29.6l-33.3,0.5l-0.5,29.1h-13.4v22.8h13.4v28.2l-0.1,10.5c0,10.1,2.5,17.5,7.6,22.1c3,2.8,7.1,4.7,12.2,5.8  h-31.7l0.4,0l-31.9-48.7l26.2-40.7H452l-9.2,15.7c-0.5,0.9-0.9,1.6-1,1.8c-0.9,1.7-1.7,3-2.4,4c-0.5-1.1-0.9-1.8-1.2-2.3  c-0.6-1-1.1-1.9-1.5-2.6l-9.2-16.7h-39l27.5,42l-31.4,47.4l0.1,0h-0.1l-59.4-59.4H293c6.5-1.5,12-4,16.6-7.6  c7.9-6.2,12.9-13.7,14.8-22.5l-32.7-2.2c-1.3,7.3-5.8,11-13.4,11c-5.3,0-8.8-1.4-10.7-4.1c-1.9-2.7-2.9-6.9-3-12.5h59.9  c0.1-2.2,0.1-3.9,0.1-5.1c0-14.9-4.4-26.7-13.2-35.4c-8.8-8.7-20.4-13-34.7-13c-14.8,0-26.6,4.6-35.4,13.8  c-8.8,9.2-13.3,20.5-13.3,33.8c0,12.9,4.5,23.7,13.4,32.4c5.8,5.6,12.9,9.4,21.2,11.4h-56.8V352h24.9v-28.7h-92V352h32.3v91.1H146  L264.9,562h358.5L563.9,502.6z M276.9,372.3c3.5,0,6.4,1,8.8,3.1c2.4,2.1,3.6,6.1,3.6,12.2h-24.9  C264.5,377.4,268.7,372.3,276.9,372.3z M413.3,502.6l17.5-28.6l16.4,28.6H413.3z"
   id="path4054" />
<g
   id="g4060"
   transform="matrix(1.0824524,0,0,1.0817646,-2.4735706,-45.943505)">
	<g
   id="g4058">
		<rect
   x="30"
   y="206"
   width="709.5"
   height="355.89999"
   id="rect4056"
   style="fill:#2f2f82" />
	</g>
</g>
<rect
   x="384.7"
   y="323.3"
   fill="#FFFFFF"
   width="179.2"
   height="179.2"
   id="rect4062" />
<polygon
   fill="#2F2F82"
   points="563.9,502.6 623.4,502.6 623.4,382.8 563.9,323.3 "
   id="polygon4064" />
<rect
   x="146"
   y="263.9"
   fill="#FDEC0A"
   width="179.2"
   height="179.2"
   id="rect4066" />
<polygon
   fill="#141415"
   points="563.9,502.6 623.4,562 623.4,382.8 563.9,323.3 "
   id="polygon4068" />
<polygon
   fill="#BE2026"
   points="325.3,443.1 384.7,502.6 384.7,323.3 325.3,263.9 "
   id="polygon4070" />
<path
   fill="#010101"
   d="M563.9,502.6c0,0-16,0-14,0v-25.9c-3.9,1-7.2,1.5-10,1.5c-1.8,0-3.6-0.4-5.3-1.3c-1.7-0.8-2.5-3.5-2.5-8v-33  h17.8v-22.8h-17.8v-29.6l-33.3,0.5l-0.5,29.1h-13.4v22.8h13.4v28.2l-0.1,10.5c0,10.1,2.5,17.5,7.6,22.1c3,2.8,7.1,4.7,12.2,5.8  h-31.7l0.4,0l-31.9-48.7l26.2-40.7H452l-9.2,15.7c-0.5,0.9-0.9,1.6-1,1.8c-0.9,1.7-1.7,3-2.4,4c-0.5-1.1-0.9-1.8-1.2-2.3  c-0.6-1-1.1-1.9-1.5-2.6l-9.2-16.7h-39l27.5,42l-31.4,47.4l0.1,0h-0.1l-59.4-59.4H293c6.5-1.5,12-4,16.6-7.6  c7.9-6.2,12.9-13.7,14.8-22.5l-32.7-2.2c-1.3,7.3-5.8,11-13.4,11c-5.3,0-8.8-1.4-10.7-4.1c-1.9-2.7-2.9-6.9-3-12.5h59.9  c0.1-2.2,0.1-3.9,0.1-5.1c0-14.9-4.4-26.7-13.2-35.4c-8.8-8.7-20.4-13-34.7-13c-14.8,0-26.6,4.6-35.4,13.8  c-8.8,9.2-13.3,20.5-13.3,33.8c0,12.9,4.5,23.7,13.4,32.4c5.8,5.6,12.9,9.4,21.2,11.4h-56.8V352h24.9v-28.7H146V352h24.9v91.1H146  L264.9,562h358.5L563.9,502.6z M276.9,372.3c3.5,0,6.4,1,8.8,3.1c2.4,2.1,3.6,6.1,3.6,12.2h-24.9  C264.5,377.4,268.7,372.3,276.9,372.3z M413.3,502.6l17.5-28.6l16.4,28.6H413.3z"
   id="path4072" />
<g
   id="g4096">
	<path
   fill="#FFFFFF"
   d="M398,318.5h-4.5c-0.1-0.5-0.2-1.1-0.2-1.7c-0.8,1.3-2.1,1.9-3.8,1.9c-1.4,0-2.5-0.4-3.2-1.1s-1-1.5-1-2.5   c0-1.3,0.6-2.3,1.7-3.1s3.2-1.2,6.1-1.4v-0.3c0-0.5-0.1-0.9-0.4-1s-0.6-0.3-1-0.3c-1.1,0-1.7,0.4-1.8,1.3l-4.3-0.4   c0.6-2.5,2.7-3.7,6.2-3.7c1,0,1.8,0.1,2.6,0.3s1.4,0.5,1.9,0.9s0.8,0.8,0.9,1.3s0.2,1.3,0.2,2.6v4.8   C397.6,317.1,397.7,317.9,398,318.5z M393.1,312.9c-2,0.2-3,0.8-3,1.9c0,0.7,0.4,1.1,1.2,1.1c0.5,0,0.9-0.1,1.3-0.4s0.5-1,0.5-2   V312.9z"
   id="path4074" />
	<path
   fill="#FFFFFF"
   d="M402.7,318.5H400v-16h4.6v5.5c0.6-1.1,1.7-1.7,3.1-1.7c1,0,1.8,0.3,2.5,0.8s1.2,1.3,1.5,2.2s0.5,2,0.5,3   c0,1.9-0.4,3.5-1.3,4.6s-2.1,1.8-3.8,1.8c-1.7,0-3-0.6-3.8-1.9C403,317.3,402.8,317.9,402.7,318.5z M404.6,314.1   c0,1.2,0.5,1.8,1.4,1.8c0.5,0,0.9-0.2,1.1-0.6s0.4-1.3,0.4-2.6c0-1.4-0.1-2.4-0.4-2.7s-0.7-0.6-1.1-0.6c-0.3,0-0.7,0.1-0.9,0.4   s-0.4,0.7-0.4,1.2V314.1z"
   id="path4076" />
	<path
   fill="#FFFFFF"
   d="M419.9,318.8c-2,0-3.5-0.6-4.7-1.8s-1.7-2.7-1.7-4.3c0-1.8,0.6-3.3,1.8-4.5s2.8-1.8,4.7-1.8   c2,0,3.5,0.6,4.7,1.8s1.8,2.6,1.8,4.4c0,1.8-0.6,3.3-1.8,4.5S421.9,318.8,419.9,318.8z M420,315.9c0.7,0,1.2-0.4,1.3-1.1   s0.2-1.5,0.2-2.4c0-1.1-0.1-1.9-0.3-2.4s-0.6-0.7-1.2-0.7c-0.5,0-0.9,0.3-1.2,0.8s-0.4,1.3-0.4,2.5c0,1.4,0.1,2.3,0.4,2.7   S419.5,315.9,420,315.9z"
   id="path4078" />
	<path
   fill="#FFFFFF"
   d="M440,306.6v11.9h-4.3v-2c-0.6,1.5-1.9,2.2-3.7,2.2c-1.1,0-2-0.3-2.6-0.9s-0.9-1.5-0.9-2.7v-8.5h4.7v7.5   c0,0.5,0.1,0.8,0.2,1s0.4,0.3,0.8,0.3c0.4,0,0.7-0.1,1-0.4s0.4-0.7,0.4-1.2v-7.1H440z"
   id="path4080" />
	<path
   fill="#FFFFFF"
   d="M449.8,306.6v3h-2.4v4.4c0,0.6,0.1,1,0.3,1.1s0.5,0.2,0.7,0.2c0.4,0,0.8-0.1,1.3-0.2v3.3   c-0.9,0.2-1.8,0.3-2.7,0.3c-1.4,0-2.5-0.3-3.2-0.9s-1-1.6-1-3l0-1.4v-3.8h-1.8v-3h1.8l0.1-3.9l4.4-0.1v3.9H449.8z"
   id="path4082" />
	<path
   fill="#FFFFFF"
   d="M467.2,318.5v-37h14.3c6.2,0,10.9,1.8,14,5.5s4.6,7.9,4.6,12.8c0,5.5-1.7,10-5,13.5s-7.6,5.2-12.9,5.2   H467.2z M478.6,310h3c1.9,0,3.5-0.9,4.8-2.7c1.3-1.8,1.9-4.3,1.9-7.5c0-2.7-0.6-5-1.7-7c-1.1-2-2.8-2.9-5-2.9h-3V310z"
   id="path4084" />
	<path
   fill="#FFFFFF"
   d="M522.7,308.6l10.1,0.7c-0.6,2.7-2.1,5-4.6,6.9c-2.4,1.9-5.8,2.9-9.9,2.9c-4.6,0-8.3-1.3-11.1-4   c-2.8-2.7-4.1-6-4.1-10c0-4.1,1.4-7.6,4.1-10.4c2.7-2.8,6.4-4.3,10.9-4.3c4.4,0,8,1.3,10.7,4c2.7,2.7,4.1,6.3,4.1,10.9   c0,0.4,0,0.9,0,1.6h-18.5c0,1.7,0.3,3,0.9,3.9c0.6,0.8,1.7,1.3,3.3,1.3C520.9,312,522.3,310.9,522.7,308.6z M522,301.5   c0-1.9-0.4-3.1-1.1-3.8c-0.7-0.6-1.6-1-2.7-1c-2.6,0-3.8,1.6-3.8,4.7H522z"
   id="path4086" />
	<path
   fill="#FFFFFF"
   d="M559.4,311.7v6.9h-24.3v-6l11.6-14.9c-1.4,0.1-2.3,0.1-2.8,0.1h-7.8V291H559v5.8l-11.8,15l1.4,0   c0.3,0,0.5,0,0.8,0H559.4z"
   id="path4088" />
	<path
   fill="#FFFFFF"
   d="M574,280.4v8.6h-10.8v-8.6H574z M574,291v27.6h-10.8V291H574z"
   id="path4090" />
	<path
   fill="#FFFFFF"
   d="M608.4,284.7l-0.3,7.4l-0.5,0c-1-0.1-1.7-0.1-2.1-0.1c-1.7,0-2.7,0.3-3,1c2.1,1.7,3.1,3.7,3.1,6.2   c0,2.8-1.1,4.9-3.3,6.4c-2.2,1.4-5.3,2.1-9.1,2.1c-0.1,0-0.6,0-1.4-0.1c-0.8,0-1.2-0.1-1.2-0.1c-1.8,0-2.6,0.5-2.6,1.4   c0,0.8,0.8,1.2,2.3,1.3l8.9,0.4c3.2,0.1,5.6,1,7.1,2.7s2.3,3.6,2.3,5.8c0,2.6-1.1,4.8-3.4,6.5s-6.6,2.5-13.1,2.5   c-10,0-15-2.3-15-6.9c0-2.5,1.3-4.3,4-5.3c-1.7-1.2-2.6-2.6-2.6-4.3c0-2.7,1.8-4.8,5.3-6.1c-2.9-1.3-4.4-3.4-4.4-6.4   c0-2.7,1.2-4.8,3.6-6.4c2.4-1.5,5.7-2.3,9.8-2.3c1.9,0,3.6,0.2,5.2,0.6c0.6-4.3,2.9-6.5,6.9-6.5   C605.5,284.5,606.8,284.6,608.4,284.7z M589.8,318.2c-0.4,0-0.8,0-1.2,0c-1.9,0-2.8,0.6-2.8,1.7c0,1.1,0.7,1.8,2.1,2.1   s3.3,0.5,5.7,0.5c2.2,0,3.7-0.2,4.3-0.6c0.6-0.4,1-0.9,1-1.6c0-0.5-0.1-0.9-0.4-1.2c-0.3-0.3-1-0.5-2.1-0.6L589.8,318.2z    M592.6,302.5c2.1,0,3.1-1.1,3.1-3.3c0-2.3-1.1-3.4-3.2-3.4c-2.1,0-3.2,1.2-3.2,3.5C589.3,301.4,590.4,302.5,592.6,302.5z"
   id="path4092" />
	<path
   fill="#FFFFFF"
   d="M638.2,318.5h-10.8v-17.3c0-1.4-0.2-2.3-0.7-2.7c-0.4-0.4-1-0.6-1.7-0.6c-2,0-3,1.4-3,4.1v16.6h-10.8V291   h10v3.9c1.5-3,4.1-4.5,7.9-4.5c2,0,3.7,0.4,5.1,1.2c1.4,0.8,2.4,1.8,3,3c0.6,1.2,0.9,3.3,0.9,6.4V318.5z"
   id="path4094" />
</g>
</svg>