<?xml version="1.0" encoding="iso-8859-1"?>
<!-- Generator: Adobe Illustrator 19.0.0, SVG Export Plug-In . SVG Version: 6.00 Build 0)  -->
<svg version="1.1" id="Layer_1" xmlns="http://www.w3.org/2000/svg" xmlns:xlink="http://www.w3.org/1999/xlink" x="0px" y="0px"
	 viewBox="0 0 427.303 427.303" style="enable-background:new 0 0 427.303 427.303;" xml:space="preserve">
<g>
	<path style="fill:#00833E;" d="M380.765,187.275h-0.246c-1.982-9.158-10.125-16.023-19.877-16.023
		c-9.75,0-17.891,6.865-19.873,16.023h-32.998c0-13.406-10.867-24.273-24.27-24.273c-8.941,0-16.747,4.84-20.959,12.036
		c-2.325-1.048-4.896-1.644-7.613-1.644H93.16c-39.928,0-73.983,25.121-87.237,60.417h421.38
		C427.303,208.109,406.468,187.275,380.765,187.275z"/>
	<path style="fill:#006931;" d="M373.225,191.596c0-6.948-5.633-12.582-12.583-12.582c-6.947,0-12.58,5.634-12.58,12.582H373.225z"
		/>
	<circle style="fill:#333E48;" cx="283.5" cy="187.273" r="9.995"/>
	<path style="fill:#E1CB81;" d="M5.923,233.811C2.097,243.996,0,255.029,0,266.553h394.561c18.083,0,32.742-14.66,32.742-32.743
		L5.923,233.811L5.923,233.811z"/>
	<path style="fill:#006931;" d="M176.874,258.353c0,4.792,3.886,8.678,8.678,8.678h84.5c-8.521-22.686-30.407-38.834-56.071-38.834
		h-25.168c-6.594,0-11.939,5.348-11.939,11.939L176.874,258.353L176.874,258.353z"/>
	<g>
		<path style="fill:#006931;" d="M246.679,173.393c0-7.247-5.872-13.121-13.12-13.121c-7.246,0-13.121,5.874-13.121,13.121H246.679z
			"/>
		<path style="fill:#006931;" d="M215.301,173.393c0-7.247-5.872-13.121-13.119-13.121c-7.248,0-13.121,5.874-13.121,13.121H215.301
			z"/>
		<path style="fill:#006931;" d="M183.924,173.393c0-7.247-5.874-13.121-13.121-13.121c-7.247,0-13.12,5.874-13.12,13.121H183.924z"
			/>
		<path style="fill:#006931;" d="M152.546,173.393c0-7.247-5.874-13.121-13.121-13.121c-7.247,0-13.12,5.874-13.12,13.121H152.546z"
			/>
		<path style="fill:#006931;" d="M121.168,173.393c0-7.247-5.873-13.121-13.121-13.121c-7.247,0-13.12,5.874-13.12,13.121H121.168z"
			/>
	</g>
	<g>
		<path style="fill:#00833E;" d="M165.164,266.553c0-18.083-14.659-32.743-32.742-32.743H5.923C2.097,243.996,0,255.029,0,266.553
			H165.164z"/>
		<g>
			<path style="fill:#006931;" d="M132.235,233.811c0-7.245-5.874-13.12-13.12-13.12c-7.248,0-13.121,5.875-13.121,13.12H132.235z"
				/>
			<path style="fill:#006931;" d="M100.857,233.811c0-7.245-5.874-13.12-13.12-13.12c-7.247,0-13.121,5.875-13.121,13.12H100.857z"
				/>
			<path style="fill:#006931;" d="M69.479,233.811c0-7.245-5.874-13.12-13.12-13.12c-7.247,0-13.121,5.875-13.121,13.12H69.479z"/>
			<path style="fill:#006931;" d="M38.102,233.811c0-7.245-5.874-13.12-13.12-13.12c-7.248,0-13.121,5.875-13.121,13.12H38.102z"/>
		</g>
	</g>
	<g>
		<polygon style="fill:#FFFFFF;" points="308.976,233.811 299.617,250.018 290.26,233.811 		"/>
		<polygon style="fill:#FFFFFF;" points="331.389,233.811 322.03,250.018 312.673,233.811 		"/>
		<polygon style="fill:#FFFFFF;" points="353.801,233.811 344.443,250.018 335.085,233.811 		"/>
		<polygon style="fill:#FFFFFF;" points="376.214,233.811 366.857,250.018 357.499,233.811 		"/>
		<polygon style="fill:#FFFFFF;" points="398.626,233.811 389.269,250.018 379.911,233.811 		"/>
		<polygon style="fill:#FFFFFF;" points="421.04,233.811 411.682,250.018 402.323,233.811 		"/>
	</g>
</g>
<g>
</g>
<g>
</g>
<g>
</g>
<g>
</g>
<g>
</g>
<g>
</g>
<g>
</g>
<g>
</g>
<g>
</g>
<g>
</g>
<g>
</g>
<g>
</g>
<g>
</g>
<g>
</g>
<g>
</g>
</svg>
