<?xml version="1.0" encoding="utf-8"?>
<!-- Generator: Adobe Illustrator 18.1.1, SVG Export Plug-In . SVG Version: 6.00 Build 0)  -->
<svg version="1.1" id="Слой_1" xmlns="http://www.w3.org/2000/svg" xmlns:xlink="http://www.w3.org/1999/xlink" x="0px" y="0px"
	 viewBox="0 0 768 385.3" enable-background="new 0 0 768 385.3" xml:space="preserve">
<g>
	<g>
		<rect fill="#010101" width="768" height="385.3"/>
	</g>
</g>
<g>
	<path fill="#FFFFFF" d="M84.5,245.7V115.8h50.2c21.8,0,38.2,6.5,49,19.4c10.8,12.9,16.3,27.9,16.3,44.9c0,19.4-5.8,35.2-17.5,47.3
		c-11.6,12.1-26.8,18.2-45.3,18.2H84.5z M124.3,215.8h10.4c6.6,0,12.2-3.2,16.7-9.6c4.5-6.4,6.8-15.1,6.8-26.2c0-9.4-2-17.6-6-24.5
		c-4-6.8-9.8-10.3-17.5-10.3h-10.4V215.8z"/>
	<path fill="#FFFFFF" d="M279.4,210.9l35.4,2.4c-2.1,9.5-7.4,17.6-16,24.3c-8.6,6.7-20.2,10-34.9,10c-16.3,0-29.3-4.7-39-14.1
		c-9.7-9.4-14.6-21.1-14.6-35.1c0-14.5,4.8-26.7,14.4-36.6c9.6-10,22.4-14.9,38.3-14.9c15.5,0,28,4.7,37.5,14.1
		c9.5,9.4,14.3,22.2,14.3,38.3c0,1.3,0,3.2-0.1,5.5H250c0.1,6.1,1.2,10.6,3.2,13.6c2,2.9,5.9,4.4,11.6,4.4
		C273.1,222.8,277.9,218.9,279.4,210.9z M276.8,185.8c-0.1-6.5-1.4-10.9-3.9-13.2c-2.6-2.3-5.7-3.4-9.5-3.4c-9,0-13.5,5.5-13.5,16.6
		H276.8z"/>
	<path fill="#FFFFFF" d="M408.3,221.6v24.1H323v-21l40.8-52.4c-4.9,0.2-8.2,0.3-9.9,0.3h-27.6v-23.6h80.5v20.4l-41.6,52.5l5-0.1
		c1-0.1,1.9-0.1,2.8-0.1H408.3z"/>
	<path fill="#FFFFFF" d="M459.5,111.7v30.1h-38v-30.1H459.5z M459.5,148.9v96.8h-38v-96.8H459.5z"/>
	<path fill="#FFFFFF" d="M580.3,126.9l-1,26l-1.8-0.1c-3.4-0.2-5.9-0.3-7.3-0.3c-5.9,0-9.5,1.2-10.7,3.5c7.2,6,10.8,13.2,10.8,21.6
		c0,9.9-3.9,17.3-11.7,22.3c-7.8,5-18.5,7.5-31.9,7.5c-0.3,0-2-0.1-4.9-0.2c-2.8-0.1-4.2-0.2-4.4-0.2c-6.2,0-9.2,1.6-9.2,4.8
		c0,2.8,2.7,4.3,8.2,4.5l31.1,1.3c11.4,0.5,19.7,3.7,25,9.5c5.3,5.8,7.9,12.7,7.9,20.5c0,9.3-3.9,16.8-11.8,22.7
		c-7.9,5.9-23.3,8.8-46.1,8.8c-35.2,0-52.8-8.1-52.8-24.3c0-8.8,4.7-15,14-18.5c-6-4.2-9-9.3-9-15.1c0-9.5,6.2-16.7,18.6-21.5
		c-10.3-4.5-15.5-12-15.5-22.5c0-9.6,4.2-17,12.6-22.4s19.9-8,34.4-8c6.7,0,12.7,0.7,18.2,2c2.2-15.2,10.2-22.7,24.1-22.7
		C570.1,126.2,574.5,126.4,580.3,126.9z M515.1,244.4c-1.4-0.1-2.8-0.1-4.2-0.1c-6.5,0-9.8,2-9.8,6.1c0,3.7,2.5,6.2,7.5,7.2
		c5,1.1,11.6,1.6,19.9,1.6c7.9,0,12.9-0.7,15.2-2c2.3-1.3,3.4-3.2,3.4-5.5c0-1.6-0.5-3-1.5-4.1c-1-1.1-3.4-1.8-7.2-1.9L515.1,244.4z
		 M524.8,189.4c7.4,0,11-3.9,11-11.7c0-8-3.8-12-11.3-12c-7.5,0-11.2,4.1-11.2,12.2C513.2,185.6,517.1,189.4,524.8,189.4z"/>
	<path fill="#FFFFFF" d="M684.9,245.7h-38v-60.9c0-5-0.8-8.2-2.3-9.6c-1.6-1.4-3.5-2.1-5.9-2.1c-6.9,0-10.4,4.8-10.4,14.5v58.1h-38
		v-96.8h35.2v13.7c5.2-10.5,14.5-15.7,27.9-15.7c7,0,13,1.3,17.8,4c4.9,2.7,8.3,6.2,10.4,10.5s3.1,11.7,3.1,22.3V245.7z"/>
</g>
</svg>
