<?xml version="1.0" encoding="utf-8"?>
<!-- Generator: Adobe Illustrator 18.1.1, SVG Export Plug-In . SVG Version: 6.00 Build 0)  -->
<svg version="1.1" id="Слой_1" xmlns="http://www.w3.org/2000/svg" xmlns:xlink="http://www.w3.org/1999/xlink" x="0px" y="0px"
	 viewBox="0 0 768 768" enable-background="new 0 0 768 768" xml:space="preserve">
<g>
	<g>
		<rect x="205.9" y="209" fill="#010101" width="356.2" height="355.9"/>
	</g>
</g>
<g>
	<path fill="#FFFFFF" d="M451.7,436h-34v-55.9c0-3.7-0.5-6.4-1.6-7.9c-1.1-1.5-3-2.2-5.8-2.2c-6.6,0-9.8,4.8-9.8,14.3V436h-33.7
		v-55.9c0-7.1-2.8-10.7-8.3-10.7c-5.7,0-8.5,3.6-8.5,10.7V436h-33.8v-89.4h31.5v12c5.6-9.3,13.8-13.9,24.5-13.9
		c11.5,0,19.9,4.6,25.1,13.9c5.8-9.3,14.7-13.9,26.7-13.9c5.7,0,10.8,1.2,15.2,3.6c4.4,2.4,7.5,5.5,9.5,9.3c2,3.8,2.9,9.6,2.9,17.5
		V436z"/>
</g>
</svg>
