<?xml version="1.0" encoding="utf-8"?>
<!-- Generator: Adobe Illustrator 18.1.1, SVG Export Plug-In . SVG Version: 6.00 Build 0)  -->
<svg version="1.1" id="Слой_1" xmlns="http://www.w3.org/2000/svg" xmlns:xlink="http://www.w3.org/1999/xlink" x="0px" y="0px"
	 viewBox="0 0 768 768" enable-background="new 0 0 768 768" xml:space="preserve">
<g>
	<g>
		<rect fill="#BE2026" width="768" height="768"/>
	</g>
	<polygon fill="#FDEC0A" points="255.8,511.6 255.8,639.8 319.9,768 384,639.8 384,511.6 	"/>
	<polygon fill="#010101" points="287.9,703.9 351.9,703.9 319.9,768 	"/>
	<g>
		<path fill="none" d="M508.9,339.4c-0.6,1.7-1.1,3.2-1.8,4.9C507.8,342.8,508.4,341.1,508.9,339.4z"/>
		<path fill="none" d="M499.9,357c-0.8,1.1-1.6,2.1-2.5,3.1C498.3,359.1,499.1,358.1,499.9,357z"/>
		<path fill="none" d="M507,294.5c0.8,1.9,1.6,3.9,2.1,5.9C508.6,298.3,507.9,296.4,507,294.5z"/>
		<path fill="none" d="M493.4,364.6C493.4,364.7,493.4,364.7,493.4,364.6C493.4,364.7,493.4,364.7,493.4,364.6z"/>
		<path fill="none" d="M464,257.3c3,0.8,6,1.8,8.9,3C470.2,259.2,467.1,258.2,464,257.3z"/>
		<path fill="none" d="M485.7,371.3c-1.5,1-2.9,2-4.4,2.9C482.8,373.3,484.2,372.3,485.7,371.3z"/>
		<path fill="none" d="M497.5,278.6c1.3,1.6,2.6,3.2,3.7,4.9C500,281.9,498.8,280.2,497.5,278.6z"/>
		<path fill="none" d="M475.9,261.6c1.9,0.9,3.7,1.9,5.5,2.9C479.6,263.5,477.7,262.5,475.9,261.6z"/>
		<path fill="none" d="M481.2,264.5c2.7,1.6,5.1,3.4,7.5,5.4C486.5,268,483.9,266.2,481.2,264.5z"/>
		<path fill="none" d="M493.3,364.8c-1.5,1.5-2.9,2.8-4.5,4C490.4,367.6,491.8,366.2,493.3,364.8z"/>
		<path fill="none" d="M495.5,276.3c-2.1-2.2-4.2-4.4-6.7-6.4C491.2,271.9,493.4,274,495.5,276.3z"/>
		<path fill="none" d="M481.2,374.2c-1.8,1.1-3.6,2-5.5,2.9C477.7,376.3,479.6,375.3,481.2,374.2z"/>
		<path fill="none" d="M468.2,380.2c-1.3,0.4-2.7,0.9-4,1.2C465.5,381.1,466.8,380.6,468.2,380.2z"/>
		<path fill="#FDEC0A" d="M510.2,335.4c-0.3,1.3-0.8,2.7-1.2,4C509.4,338.1,509.7,336.7,510.2,335.4z"/>
		<path fill="#FDEC0A" d="M502.9,352.6c-0.9,1.5-1.9,3-2.9,4.4C500.9,355.6,501.9,354.2,502.9,352.6z"/>
		<path fill="#FDEC0A" d="M488.8,368.8c-1,0.9-2.1,1.7-3.1,2.5C486.7,370.5,487.8,369.7,488.8,368.8z"/>
		<path fill="#FDEC0A" d="M505.8,347.1c-0.9,1.9-1.9,3.7-2.9,5.5C503.9,350.8,504.9,349,505.8,347.1z"/>
		<path fill="#FDEC0A" d="M473,378.4c-1.6,0.7-3.2,1.2-4.9,1.8C469.7,379.8,471.4,379.1,473,378.4z"/>
		<path fill="#FDEC0A" d="M497.5,360.2c-1.2,1.6-2.6,3-4,4.5C494.9,363.2,496.2,361.6,497.5,360.2z"/>
		<path fill="#FDEC0A" d="M493.4,364.7C493.3,364.8,493.3,364.8,493.4,364.7C493.3,364.8,493.3,364.8,493.4,364.7z"/>
	</g>
	<path fill="#010101" d="M461.7,127.2h-77.8v128.2h64c5.5,0,10.8,0.7,16,2c3,0.8,6,1.8,8.9,3c1,0.4,1.9,0.8,2.8,1.2
		c1.9,0.9,3.7,1.9,5.5,2.9c2.7,1.6,5.1,3.4,7.5,5.4c2.3,2,4.6,4.1,6.7,6.4c0.7,0.8,1.3,1.6,2,2.3c1.3,1.6,2.6,3.2,3.7,4.9
		c2.3,3.5,4.2,7,5.9,10.8c0.8,1.9,1.6,3.9,2.1,5.9c1.9,6,2.9,12.4,2.9,19.1l0,0c0,5.5-0.7,10.8-2,16c-0.3,1.3-0.8,2.7-1.2,4
		c-0.6,1.7-1.1,3.2-1.8,4.9c-0.4,1-0.8,1.9-1.2,2.8c-0.9,1.9-1.9,3.7-2.9,5.5c-0.9,1.5-1.9,3-2.9,4.4c-0.8,1.1-1.6,2.1-2.5,3.1
		c-1.2,1.6-2.6,3-4,4.5l-0.1,0.1l-0.1,0.1c-1.5,1.5-2.9,2.8-4.5,4c-1,0.9-2.1,1.7-3.1,2.5c-1.5,1-2.9,2-4.4,2.9
		c-1.8,1.1-3.6,2-5.5,2.9c-0.9,0.4-1.9,0.9-2.8,1.2c-1.6,0.7-3.2,1.2-4.9,1.8c-1.3,0.4-2.7,0.9-4,1.2c-5.1,1.3-10.5,2-16,2h-64
		H255.8l-0.1,1.7v-1.7l0,0c-70.7,0-128,57.3-128,128v256.5h128V567.6c0-31.1,25.1-56.2,56.2-56.2H384h77.8
		c98.7,0,178.6-80,178.6-178.6v-13.6v-13.6C640.3,207.1,560.4,127.2,461.7,127.2z"/>
	<g>
		<path fill="#FFFFFF" d="M289.2,484c-10.3,0-18.3-3.2-24.4-9.6s-9.1-13.9-9.1-22.5c0-9.3,3.1-16.9,9.4-23
			c6.3-6.1,14.5-9.3,24.6-9.3c10.2,0,18.3,3,24.5,9.1c6.1,6,9.3,13.6,9.3,22.8c0,9.3-3.1,16.9-9.4,23.1
			C307.9,481,299.6,484,289.2,484z M289.6,469.4c3.8,0,6-1.9,6.9-5.8c0.8-3.9,1.2-7.9,1.2-12.2c0-5.8-0.6-9.9-1.8-12.5
			c-1.1-2.6-3.2-3.8-6.3-3.8c-2.8,0-4.8,1.3-6.1,3.9c-1.3,2.7-1.9,6.9-1.9,13c0,7,0.7,11.7,2,14.1C285,468.3,287,469.4,289.6,469.4z
			"/>
		<path fill="#FFFFFF" d="M327.5,465.4l19.1-2.6c1.1,4.5,5.5,6.7,13,6.7c6.3,0,9.4-1.2,9.4-3.7c0-1-0.6-1.9-1.8-2.5
			c-1.2-0.6-4.1-1.2-8.6-1.8c-12.5-1.8-20.3-4.5-23.5-8.2c-3.1-3.7-4.7-7.8-4.7-12.4c0-6.3,2.7-11.4,7.9-15.3s12.2-5.8,20.7-5.8
			c15,0,24.5,5.4,28.6,16.2l-18.3,3.5c-1.7-3.7-5.3-5.5-10.7-5.5c-2.6,0-4.5,0.3-5.8,1.1c-1.2,0.7-1.9,1.5-1.9,2.1
			c0,2,1.9,3.2,5.8,3.7c10.2,1.1,17,2.2,20.6,3.5c3.6,1.1,6.7,3.4,9.3,6.5c2.6,3.1,3.8,6.9,3.8,11.3c0,6.8-2.8,12.2-8.5,16.1
			c-5.7,4-13.4,5.9-23.4,5.9C341.8,484,331.5,477.9,327.5,465.4z"/>
		<path fill="#FFFFFF" d="M437.5,421.1v15.8h-12.3v22.8c0,3.1,0.6,4.9,1.8,5.6c1.1,0.6,2.3,0.9,3.7,0.9c1.9,0,4.2-0.3,6.9-1v17.2
			c-4.8,0.9-9.5,1.3-14.1,1.3c-7.5,0-13-1.6-16.4-4.8c-3.5-3.2-5.3-8.3-5.3-15.3l0.1-7.3v-19.4h-9.3v-15.8h9.3l0.3-20.1l23-0.3v20.5
			L437.5,421.1L437.5,421.1z"/>
		<path fill="#FFFFFF" d="M486.5,460.7l22.6,1.6c-1.3,6-4.7,11.3-10.3,15.5c-5.5,4.2-12.9,6.4-22.2,6.4c-10.4,0-18.7-3-24.9-9.1
			c-6.3-6-9.3-13.5-9.3-22.4c0-9.3,3-17,9.2-23.4c6.1-6.4,14.3-9.5,24.5-9.5c9.8,0,17.9,3,23.9,8.9c6.1,6,9.2,14.2,9.2,24.5
			c0,0.9,0,2-0.1,3.6h-41.3c0.1,3.9,0.8,6.8,2,8.6c1.3,1.9,3.8,2.8,7.4,2.8C482.5,468.3,485.5,465.7,486.5,460.7z M484.8,444.6
			c0-4.1-0.9-6.9-2.5-8.4c-1.7-1.5-3.7-2.1-6-2.1c-5.7,0-8.6,3.6-8.6,10.6h17.1V444.6z"/>
		<path fill="#FFFFFF" d="M541.7,482.8h-23.2v-61.7h20.1v12.7c2.3-9.3,7.7-13.9,16.1-13.9c0.9,0,2,0.1,3.6,0.2v21.6
			c-1.7-0.4-3.2-0.6-4.6-0.6c-8,0-12.1,4.5-12.1,13.4v28.2H541.7z"/>
	</g>
	<path fill="#010101" d="M255.8,127.2V0H127.6v127.2l0,0c0,70.7,57.3,128.2,128.2,128.2l0,0V127.2z"/>
	<g>
		<polygon fill="#FDEC0A" points="384,0 255.8,0 255.8,255.3 255.8,383.4 384,383.4 384,191.2 		"/>
	</g>
</g>
<circle fill="#2F2F82" cx="620" cy="619.9" r="64"/>
</svg>
