<?xml version="1.0" encoding="utf-8"?>
<!-- Generator: Adobe Illustrator 18.1.1, SVG Export Plug-In . SVG Version: 6.00 Build 0)  -->
<svg version="1.1" id="Слой_1" xmlns="http://www.w3.org/2000/svg" xmlns:xlink="http://www.w3.org/1999/xlink" x="0px" y="0px"
	 viewBox="0 0 768 768" enable-background="new 0 0 768 768" xml:space="preserve">
<g>
	<rect fill="#010101" width="768" height="768"/>
</g>
<g>
	<polygon fill="#BE2026" points="768,768 640,768 512,384 384,512 384,768 256,768 256,0 768,0 	"/>
	<polygon fill="#2F2F82" points="128,0 256,128 256,384 128,384 	"/>
	<polygon fill="#2F2F82" points="512,384 640,512 640,768 512,768 	"/>
	<polygon fill="#2F2F82" points="128,512 128,768 256,768 256,576 	"/>
	<polyline fill="#010101" points="128,512 256,576 384,576 384,512 	"/>
	<polygon fill="#FFFFFF" points="384,384 256,384 256,384 128,384 128,128 256,128 256,0 128,0 75.7,0 0,0 0,128 0,128 0,384 0,512 
		0,768 128,768 128,512 256,512 256,512 384,512 384,640 384,640 384,768 512,768 512,640 512,640 512,512 512,512 512,384 	"/>
	<polygon fill="#010101" points="256,257 384,257 256,128 128,128 	"/>
	<polygon fill="#2F2F82" points="256,0 384,129 384,257 256,128 	"/>
	<rect x="384" y="128.5" fill="#FDEC0A" width="128" height="128"/>
	<polygon fill="#2F2F82" points="640,384 640,257 512,128.5 512,256.5 	"/>
	<polygon fill="#010101" points="512,256.5 640,384 512,384 384,256.5 	"/>
	<g>
		<path fill="#010101" d="M173.3,424.9v69.2h-26.5v-69.2H128v-21.8h64.2v21.8H173.3z"/>
		<path fill="#010101" d="M265.8,494.1h-26.6v-40.8c0-3.7-0.4-6.3-1.2-7.7c-0.8-1.4-2.4-2.1-4.7-2.1c-1.8,0-3.4,0.5-4.7,1.6
			c-1.4,1.1-2.1,2.2-2.4,3.4c-0.2,1.2-0.3,3.6-0.3,7.3v38.3h-26.6v-91h26.6v31.2c4.8-6.3,11.1-9.4,18.8-9.4c3.9,0,7.3,0.7,10.3,2
			c2.9,1.4,5.2,3.1,6.8,5.2c1.6,2.1,2.7,4.2,3.2,6.2c0.5,2,0.8,5.9,0.8,11.6L265.8,494.1L265.8,494.1z"/>
		<path fill="#010101" d="M306.5,400.2v21.1h-26.6v-21.1H306.5z M306.5,426.3v67.8h-26.6v-67.8H306.5z"/>
		<path fill="#010101" d="M386.7,494.1h-26.6v-42.7c0-3.5-0.5-5.8-1.6-6.7c-1.1-1-2.5-1.5-4.1-1.5c-4.9,0-7.3,3.4-7.3,10.1v40.7
			h-26.6v-67.8h24.7v9.6c3.6-7.3,10.2-11,19.5-11c4.9,0,9.1,0.9,12.5,2.8c3.4,1.9,5.8,4.3,7.3,7.3c1.5,3,2.2,8.2,2.2,15.6
			L386.7,494.1L386.7,494.1z"/>
		<path fill="#010101" d="M471.3,410.9l-0.7,18.2l-1.3-0.1c-2.4-0.1-4.1-0.2-5.1-0.2c-4.1,0-6.6,0.8-7.5,2.5
			c5.1,4.2,7.6,9.2,7.6,15.1c0,6.9-2.7,12.1-8.2,15.6s-13,5.2-22.4,5.2c-0.2,0-1.4,0-3.5-0.1c-2-0.1-3-0.1-3.1-0.1
			c-4.3,0-6.5,1.1-6.5,3.3c0,1.9,1.9,3,5.7,3.1l21.8,0.9c7.9,0.4,13.8,2.6,17.5,6.7c3.7,4.1,5.6,8.9,5.6,14.3
			c0,6.5-2.8,11.8-8.3,15.9c-5.5,4.1-16.3,6.2-32.3,6.2c-24.7,0-37-5.7-37-17c0-6.2,3.3-10.5,9.8-12.9c-4.2-3-6.3-6.5-6.3-10.6
			c0-6.7,4.3-11.7,13-15.1c-7.3-3.2-10.9-8.4-10.9-15.7c0-6.7,2.9-11.9,8.8-15.7c5.9-3.7,13.9-5.6,24.1-5.6c4.7,0,8.9,0.5,12.7,1.4
			c1.5-10.6,7.2-15.9,16.9-15.9C464.1,410.3,467.3,410.5,471.3,410.9z M425.6,493.2c-1-0.1-2-0.1-2.9-0.1c-4.6,0-6.9,1.4-6.9,4.3
			c0,2.6,1.7,4.3,5.2,5.1c3.5,0.8,8.1,1.1,14,1.1c5.5,0,9.1-0.5,10.6-1.4c1.6-0.9,2.4-2.2,2.4-3.9c0-1.2-0.4-2.1-1.1-2.9
			c-0.7-0.8-2.4-1.2-5.1-1.4L425.6,493.2z M432.4,454.7c5.2,0,7.7-2.7,7.7-8.2c0-5.6-2.6-8.4-7.9-8.4c-5.2,0-7.9,2.9-7.9,8.5
			C424.3,452,427,454.7,432.4,454.7z"/>
	</g>
</g>
</svg>
