<?xml version="1.0" encoding="UTF-8" standalone="no"?>
<svg
   xmlns:dc="http://purl.org/dc/elements/1.1/"
   xmlns:cc="http://creativecommons.org/ns#"
   xmlns:rdf="http://www.w3.org/1999/02/22-rdf-syntax-ns#"
   xmlns:svg="http://www.w3.org/2000/svg"
   xmlns="http://www.w3.org/2000/svg"
   xmlns:sodipodi="http://sodipodi.sourceforge.net/DTD/sodipodi-0.dtd"
   xmlns:inkscape="http://www.inkscape.org/namespaces/inkscape"
   version="1.1"
   id="Слой_1"
   x="0px"
   y="0px"
   viewBox="0 0 768 375"
   enable-background="new 0 0 768 768"
   xml:space="preserve"
   sodipodi:docname="blog.svg"
   inkscape:version="1.0.1 (1.0.1+r74)"
   width="768"
   height="375"><metadata
   id="metadata4103"><rdf:RDF><cc:Work
       rdf:about=""><dc:format>image/svg+xml</dc:format><dc:type
         rdf:resource="http://purl.org/dc/dcmitype/StillImage" /></cc:Work></rdf:RDF></metadata><defs
   id="defs4101" /><sodipodi:namedview
   pagecolor="#ffffff"
   bordercolor="#666666"
   borderopacity="1"
   objecttolerance="10"
   gridtolerance="10"
   guidetolerance="10"
   inkscape:pageopacity="0"
   inkscape:pageshadow="2"
   inkscape:window-width="1920"
   inkscape:window-height="1007"
   id="namedview4099"
   showgrid="false"
   inkscape:zoom="1.2552083"
   inkscape:cx="354"
   inkscape:cy="178"
   inkscape:window-x="0"
   inkscape:window-y="0"
   inkscape:window-maximized="1"
   inkscape:current-layer="Слой_1"
   inkscape:document-rotation="0" />
<text
   font-size="180"
   id="text4036"
   style="font-size:177.624px;font-family:FranklinGothic-Heavy;fill:#ffffff;stroke-width:0.986799"
   x="172.6523"
   y="252.73355"
   transform="scale(1.0133772,0.98679939)">Text</text>


<g
   id="g4042"
   transform="matrix(1,0,0,0.97377304,-30,-172.26045)">
	<g
   id="g4040">
		<rect
   x="30"
   y="206"
   width="709.5"
   height="355.89999"
   id="rect4038"
   style="fill:#010101" />
	</g>
</g>
<rect
   x="354.70001"
   y="142.56035"
   width="179.2"
   height="174.50012"
   id="rect4044"
   style="fill:#ffffff;stroke-width:0.986799" />
<polygon
   points="623.4,502.6 623.4,382.8 563.9,323.3 563.9,502.6 "
   id="polygon4046"
   style="fill:#2f2f82"
   transform="matrix(1,0,0,0.97377304,-30,-172.26045)" />
<rect
   x="116"
   y="84.718246"
   width="179.2"
   height="174.50012"
   id="rect4048"
   style="fill:#fdec0a;stroke-width:0.986799" />
<polygon
   points="623.4,562 623.4,382.8 563.9,323.3 563.9,502.6 "
   id="polygon4050"
   style="fill:#2f2f82"
   transform="matrix(1,0,0,0.97377304,-30,-172.26045)" />
<polygon
   points="384.7,502.6 384.7,323.3 325.3,263.9 325.3,443.1 "
   id="polygon4052"
   style="fill:#be2026"
   transform="matrix(1,0,0,0.97377304,-30,-172.26045)" />
<path
   d="m 533.9,317.15788 c 0,0 -16,0 -14,0 v -25.22072 c -3.9,0.97377 -7.2,1.46066 -10,1.46066 -1.8,0 -3.6,-0.38951 -5.3,-1.26591 -1.7,-0.77902 -2.5,-3.4082 -2.5,-7.79018 v -32.13451 h 17.8 v -22.20203 h -17.8 v -28.82368 l -33.3,0.48689 -0.5,28.33679 h -13.4 v 22.20203 h 13.4 v 27.4604 l -0.1,10.22461 c 0,9.83511 2.5,17.04103 7.6,21.52039 3,2.72656 7.1,4.57673 12.2,5.64788 h -31.7 0.4 L 424.8,269.63775 451,230.00519 h -29 l -9.2,15.28824 c -0.5,0.87639 -0.9,1.55804 -1,1.75279 -0.9,1.65541 -1.7,2.92132 -2.4,3.89509 -0.5,-1.07115 -0.9,-1.75279 -1.2,-2.23968 -0.6,-0.97377 -1.1,-1.85016 -1.5,-2.53181 l -9.2,-16.26201 h -39 l 27.5,40.89847 -31.4,46.15684 h 0.1 -0.1 L 295.2,259.12101 H 263 c 6.5,-1.46066 12,-3.8951 16.6,-7.40068 7.9,-6.03739 12.9,-13.34069 14.8,-21.90989 l -32.7,-2.1423 c -1.3,7.10854 -5.8,10.7115 -13.4,10.7115 -5.3,0 -8.8,-1.36328 -10.7,-3.99247 -1.9,-2.62919 -2.9,-6.71903 -3,-12.17216 h 59.9 c 0.1,-2.1423 0.1,-3.79772 0.1,-4.96624 0,-14.50922 -4.4,-25.99975 -13.2,-34.47157 -8.8,-8.47183 -20.4,-12.65905 -34.7,-12.65905 -14.8,0 -26.6,4.47936 -35.4,13.43807 -8.8,8.95871 -13.3,19.96235 -13.3,32.91353 0,12.56167 4.5,23.07842 13.4,31.55024 5.8,5.45313 12.9,9.15347 21.2,11.10102 h -56.8 v -88.61335 h 24.9 v -27.94729 h -92 v 27.94729 H 141 v 88.71072 H 116 L 234.9,375 h 358.5 z m -287,-126.88263 c 3.5,0 6.4,0.97377 8.8,3.0187 2.4,2.04492 3.6,5.94001 3.6,11.88003 h -24.9 c 0.1,-9.93249 4.3,-14.89873 12.5,-14.89873 z m 136.4,126.88263 17.5,-27.84991 16.4,27.84991 z"
   id="path4054"
   inkscape:connector-curvature="0"
   style="fill:#010101;stroke-width:0.986799" />
<g
   id="g4060"
   transform="matrix(1.0824524,0,0,1.0533932,-32.473571,-216.999)">
	<g
   id="g4058">
		<rect
   x="30"
   y="206"
   width="709.5"
   height="355.89999"
   id="rect4056"
   style="fill:#2f2f82" />
	</g>
</g>
<rect
   x="354.70001"
   y="142.56035"
   width="179.2"
   height="174.50012"
   id="rect4062"
   style="fill:#ffffff;stroke-width:0.986799" />
<polygon
   points="623.4,502.6 623.4,382.8 563.9,323.3 563.9,502.6 "
   id="polygon4064"
   style="fill:#2f2f82"
   transform="matrix(1,0,0,0.97377304,-30,-172.26045)" />
<rect
   x="116"
   y="84.718246"
   width="179.2"
   height="174.50012"
   id="rect4066"
   style="fill:#fdec0a;stroke-width:0.986799" />
<polygon
   points="623.4,562 623.4,382.8 563.9,323.3 563.9,502.6 "
   id="polygon4068"
   style="fill:#141415"
   transform="matrix(1,0,0,0.97377304,-30,-172.26045)" />
<polygon
   points="384.7,502.6 384.7,323.3 325.3,263.9 325.3,443.1 "
   id="polygon4070"
   style="fill:#be2026"
   transform="matrix(1,0,0,0.97377304,-30,-172.26045)" />
<path
   d="m 533.9,317.15788 c 0,0 -16,0 -14,0 v -25.22072 c -3.9,0.97377 -7.2,1.46066 -10,1.46066 -1.8,0 -3.6,-0.38951 -5.3,-1.26591 -1.7,-0.77902 -2.5,-3.4082 -2.5,-7.79018 v -32.13451 h 17.8 v -22.20203 h -17.8 v -28.82368 l -33.3,0.48689 -0.5,28.33679 h -13.4 v 22.20203 h 13.4 v 27.4604 l -0.1,10.22461 c 0,9.83511 2.5,17.04103 7.6,21.52039 3,2.72656 7.1,4.57673 12.2,5.64788 h -31.7 0.4 L 424.8,269.63775 451,230.00519 h -29 l -9.2,15.28824 c -0.5,0.87639 -0.9,1.55804 -1,1.75279 -0.9,1.65541 -1.7,2.92132 -2.4,3.89509 -0.5,-1.07115 -0.9,-1.75279 -1.2,-2.23968 -0.6,-0.97377 -1.1,-1.85016 -1.5,-2.53181 l -9.2,-16.26201 h -39 l 27.5,40.89847 -31.4,46.15684 h 0.1 -0.1 L 295.2,259.12101 H 263 c 6.5,-1.46066 12,-3.8951 16.6,-7.40068 7.9,-6.03739 12.9,-13.34069 14.8,-21.90989 l -32.7,-2.1423 c -1.3,7.10854 -5.8,10.7115 -13.4,10.7115 -5.3,0 -8.8,-1.36328 -10.7,-3.99247 -1.9,-2.62919 -2.9,-6.71903 -3,-12.17216 h 59.9 c 0.1,-2.1423 0.1,-3.79772 0.1,-4.96624 0,-14.50922 -4.4,-25.99975 -13.2,-34.47157 -8.8,-8.47183 -20.4,-12.65905 -34.7,-12.65905 -14.8,0 -26.6,4.47936 -35.4,13.43807 -8.8,8.95871 -13.3,19.96235 -13.3,32.91353 0,12.56167 4.5,23.07842 13.4,31.55024 5.8,5.45313 12.9,9.15347 21.2,11.10102 h -56.8 v -88.61335 h 24.9 V 142.56037 H 116 v 27.94729 h 24.9 v 88.71072 H 116 L 234.9,375 h 358.5 z m -287,-126.88263 c 3.5,0 6.4,0.97377 8.8,3.0187 2.4,2.04492 3.6,5.94001 3.6,11.88003 h -24.9 c 0.1,-9.93249 4.3,-14.89873 12.5,-14.89873 z m 136.4,126.88263 17.5,-27.84991 16.4,27.84991 z"
   id="path4072"
   inkscape:connector-curvature="0"
   style="fill:#010101;stroke-width:0.986799" />
<g
   id="g4096"
   transform="matrix(1,0,0,0.97377304,-30,-172.26045)">
	<path
   d="m 398,318.5 h -4.5 c -0.1,-0.5 -0.2,-1.1 -0.2,-1.7 -0.8,1.3 -2.1,1.9 -3.8,1.9 -1.4,0 -2.5,-0.4 -3.2,-1.1 -0.7,-0.7 -1,-1.5 -1,-2.5 0,-1.3 0.6,-2.3 1.7,-3.1 1.1,-0.8 3.2,-1.2 6.1,-1.4 v -0.3 c 0,-0.5 -0.1,-0.9 -0.4,-1 -0.3,-0.1 -0.6,-0.3 -1,-0.3 -1.1,0 -1.7,0.4 -1.8,1.3 l -4.3,-0.4 c 0.6,-2.5 2.7,-3.7 6.2,-3.7 1,0 1.8,0.1 2.6,0.3 0.8,0.2 1.4,0.5 1.9,0.9 0.5,0.4 0.8,0.8 0.9,1.3 0.1,0.5 0.2,1.3 0.2,2.6 v 4.8 c 0.2,1 0.3,1.8 0.6,2.4 z m -4.9,-5.6 c -2,0.2 -3,0.8 -3,1.9 0,0.7 0.4,1.1 1.2,1.1 0.5,0 0.9,-0.1 1.3,-0.4 0.4,-0.3 0.5,-1 0.5,-2 z"
   id="path4074"
   inkscape:connector-curvature="0"
   style="fill:#ffffff" />
	<path
   d="M 402.7,318.5 H 400 v -16 h 4.6 v 5.5 c 0.6,-1.1 1.7,-1.7 3.1,-1.7 1,0 1.8,0.3 2.5,0.8 0.7,0.5 1.2,1.3 1.5,2.2 0.3,0.9 0.5,2 0.5,3 0,1.9 -0.4,3.5 -1.3,4.6 -0.9,1.1 -2.1,1.8 -3.8,1.8 -1.7,0 -3,-0.6 -3.8,-1.9 -0.3,0.5 -0.5,1.1 -0.6,1.7 z m 1.9,-4.4 c 0,1.2 0.5,1.8 1.4,1.8 0.5,0 0.9,-0.2 1.1,-0.6 0.2,-0.4 0.4,-1.3 0.4,-2.6 0,-1.4 -0.1,-2.4 -0.4,-2.7 -0.3,-0.3 -0.7,-0.6 -1.1,-0.6 -0.3,0 -0.7,0.1 -0.9,0.4 -0.2,0.3 -0.4,0.7 -0.4,1.2 v 3.1 z"
   id="path4076"
   inkscape:connector-curvature="0"
   style="fill:#ffffff" />
	<path
   d="m 419.9,318.8 c -2,0 -3.5,-0.6 -4.7,-1.8 -1.2,-1.2 -1.7,-2.7 -1.7,-4.3 0,-1.8 0.6,-3.3 1.8,-4.5 1.2,-1.2 2.8,-1.8 4.7,-1.8 2,0 3.5,0.6 4.7,1.8 1.2,1.2 1.8,2.6 1.8,4.4 0,1.8 -0.6,3.3 -1.8,4.5 -1.2,1.2 -2.8,1.7 -4.8,1.7 z m 0.1,-2.9 c 0.7,0 1.2,-0.4 1.3,-1.1 0.1,-0.7 0.2,-1.5 0.2,-2.4 0,-1.1 -0.1,-1.9 -0.3,-2.4 -0.2,-0.5 -0.6,-0.7 -1.2,-0.7 -0.5,0 -0.9,0.3 -1.2,0.8 -0.3,0.5 -0.4,1.3 -0.4,2.5 0,1.4 0.1,2.3 0.4,2.7 0.3,0.4 0.7,0.6 1.2,0.6 z"
   id="path4078"
   inkscape:connector-curvature="0"
   style="fill:#ffffff" />
	<path
   d="m 440,306.6 v 11.9 h -4.3 v -2 c -0.6,1.5 -1.9,2.2 -3.7,2.2 -1.1,0 -2,-0.3 -2.6,-0.9 -0.6,-0.6 -0.9,-1.5 -0.9,-2.7 v -8.5 h 4.7 v 7.5 c 0,0.5 0.1,0.8 0.2,1 0.1,0.2 0.4,0.3 0.8,0.3 0.4,0 0.7,-0.1 1,-0.4 0.3,-0.3 0.4,-0.7 0.4,-1.2 v -7.1 h 4.4 z"
   id="path4080"
   inkscape:connector-curvature="0"
   style="fill:#ffffff" />
	<path
   d="m 449.8,306.6 v 3 h -2.4 v 4.4 c 0,0.6 0.1,1 0.3,1.1 0.2,0.1 0.5,0.2 0.7,0.2 0.4,0 0.8,-0.1 1.3,-0.2 v 3.3 c -0.9,0.2 -1.8,0.3 -2.7,0.3 -1.4,0 -2.5,-0.3 -3.2,-0.9 -0.7,-0.6 -1,-1.6 -1,-3 v -1.4 -3.8 H 441 v -3 h 1.8 l 0.1,-3.9 4.4,-0.1 v 3.9 h 2.5 z"
   id="path4082"
   inkscape:connector-curvature="0"
   style="fill:#ffffff" />
	<path
   d="m 467.2,318.5 v -37 h 14.3 c 6.2,0 10.9,1.8 14,5.5 3.1,3.7 4.6,7.9 4.6,12.8 0,5.5 -1.7,10 -5,13.5 -3.3,3.5 -7.6,5.2 -12.9,5.2 z m 11.4,-8.5 h 3 c 1.9,0 3.5,-0.9 4.8,-2.7 1.3,-1.8 1.9,-4.3 1.9,-7.5 0,-2.7 -0.6,-5 -1.7,-7 -1.1,-2 -2.8,-2.9 -5,-2.9 h -3 z"
   id="path4084"
   inkscape:connector-curvature="0"
   style="fill:#ffffff" />
	<path
   d="m 522.7,308.6 10.1,0.7 c -0.6,2.7 -2.1,5 -4.6,6.9 -2.4,1.9 -5.8,2.9 -9.9,2.9 -4.6,0 -8.3,-1.3 -11.1,-4 -2.8,-2.7 -4.1,-6 -4.1,-10 0,-4.1 1.4,-7.6 4.1,-10.4 2.7,-2.8 6.4,-4.3 10.9,-4.3 4.4,0 8,1.3 10.7,4 2.7,2.7 4.1,6.3 4.1,10.9 0,0.4 0,0.9 0,1.6 h -18.5 c 0,1.7 0.3,3 0.9,3.9 0.6,0.8 1.7,1.3 3.3,1.3 2.3,-0.1 3.7,-1.2 4.1,-3.5 z m -0.7,-7.1 c 0,-1.9 -0.4,-3.1 -1.1,-3.8 -0.7,-0.6 -1.6,-1 -2.7,-1 -2.6,0 -3.8,1.6 -3.8,4.7 h 7.6 z"
   id="path4086"
   inkscape:connector-curvature="0"
   style="fill:#ffffff" />
	<path
   d="m 559.4,311.7 v 6.9 h -24.3 v -6 l 11.6,-14.9 c -1.4,0.1 -2.3,0.1 -2.8,0.1 h -7.8 V 291 H 559 v 5.8 l -11.8,15 h 1.4 c 0.3,0 0.5,0 0.8,0 h 10 z"
   id="path4088"
   inkscape:connector-curvature="0"
   style="fill:#ffffff" />
	<path
   d="m 574,280.4 v 8.6 h -10.8 v -8.6 z m 0,10.6 v 27.6 H 563.2 V 291 Z"
   id="path4090"
   inkscape:connector-curvature="0"
   style="fill:#ffffff" />
	<path
   d="m 608.4,284.7 -0.3,7.4 h -0.5 c -1,-0.1 -1.7,-0.1 -2.1,-0.1 -1.7,0 -2.7,0.3 -3,1 2.1,1.7 3.1,3.7 3.1,6.2 0,2.8 -1.1,4.9 -3.3,6.4 -2.2,1.4 -5.3,2.1 -9.1,2.1 -0.1,0 -0.6,0 -1.4,-0.1 -0.8,0 -1.2,-0.1 -1.2,-0.1 -1.8,0 -2.6,0.5 -2.6,1.4 0,0.8 0.8,1.2 2.3,1.3 l 8.9,0.4 c 3.2,0.1 5.6,1 7.1,2.7 1.5,1.7 2.3,3.6 2.3,5.8 0,2.6 -1.1,4.8 -3.4,6.5 -2.3,1.7 -6.6,2.5 -13.1,2.5 -10,0 -15,-2.3 -15,-6.9 0,-2.5 1.3,-4.3 4,-5.3 -1.7,-1.2 -2.6,-2.6 -2.6,-4.3 0,-2.7 1.8,-4.8 5.3,-6.1 -2.9,-1.3 -4.4,-3.4 -4.4,-6.4 0,-2.7 1.2,-4.8 3.6,-6.4 2.4,-1.5 5.7,-2.3 9.8,-2.3 1.9,0 3.6,0.2 5.2,0.6 0.6,-4.3 2.9,-6.5 6.9,-6.5 0.6,0 1.9,0.1 3.5,0.2 z m -18.6,33.5 c -0.4,0 -0.8,0 -1.2,0 -1.9,0 -2.8,0.6 -2.8,1.7 0,1.1 0.7,1.8 2.1,2.1 1.4,0.3 3.3,0.5 5.7,0.5 2.2,0 3.7,-0.2 4.3,-0.6 0.6,-0.4 1,-0.9 1,-1.6 0,-0.5 -0.1,-0.9 -0.4,-1.2 -0.3,-0.3 -1,-0.5 -2.1,-0.6 z m 2.8,-15.7 c 2.1,0 3.1,-1.1 3.1,-3.3 0,-2.3 -1.1,-3.4 -3.2,-3.4 -2.1,0 -3.2,1.2 -3.2,3.5 0,2.1 1.1,3.2 3.3,3.2 z"
   id="path4092"
   inkscape:connector-curvature="0"
   style="fill:#ffffff" />
	<path
   d="m 638.2,318.5 h -10.8 v -17.3 c 0,-1.4 -0.2,-2.3 -0.7,-2.7 -0.4,-0.4 -1,-0.6 -1.7,-0.6 -2,0 -3,1.4 -3,4.1 v 16.6 H 611.2 V 291 h 10 v 3.9 c 1.5,-3 4.1,-4.5 7.9,-4.5 2,0 3.7,0.4 5.1,1.2 1.4,0.8 2.4,1.8 3,3 0.6,1.2 0.9,3.3 0.9,6.4 v 17.5 z"
   id="path4094"
   inkscape:connector-curvature="0"
   style="fill:#ffffff" />
</g>
</svg>
