<?xml version="1.0" encoding="UTF-8" standalone="no"?>
<svg
   xmlns:dc="http://purl.org/dc/elements/1.1/"
   xmlns:cc="http://creativecommons.org/ns#"
   xmlns:rdf="http://www.w3.org/1999/02/22-rdf-syntax-ns#"
   xmlns:svg="http://www.w3.org/2000/svg"
   xmlns="http://www.w3.org/2000/svg"
   xmlns:sodipodi="http://sodipodi.sourceforge.net/DTD/sodipodi-0.dtd"
   xmlns:inkscape="http://www.inkscape.org/namespaces/inkscape"
   version="1.1"
   id="Слой_1"
   x="0px"
   y="0px"
   viewBox="0 0 1690.0001 210.60003"
   enable-background="new 0 0 767 671.4"
   xml:space="preserve"
   sodipodi:docname="blog_slim.svg"
   width="1690"
   height="210.60004"
   inkscape:version="1.0.1 (1.0.1+r74)"><metadata
   id="metadata4128"><rdf:RDF><cc:Work
       rdf:about=""><dc:format>image/svg+xml</dc:format><dc:type
         rdf:resource="http://purl.org/dc/dcmitype/StillImage" /></cc:Work></rdf:RDF></metadata><defs
   id="defs4126" /><sodipodi:namedview
   pagecolor="#ffffff"
   bordercolor="#666666"
   borderopacity="1"
   objecttolerance="10"
   gridtolerance="10"
   guidetolerance="10"
   inkscape:pageopacity="0"
   inkscape:pageshadow="2"
   inkscape:window-width="1920"
   inkscape:window-height="1171"
   id="namedview4124"
   showgrid="false"
   inkscape:zoom="0.70501063"
   inkscape:cx="860.30909"
   inkscape:cy="83.785308"
   inkscape:window-x="3840"
   inkscape:window-y="0"
   inkscape:window-maximized="1"
   inkscape:current-layer="Слой_1"
   inkscape:document-rotation="0" />
<rect
   x="0"
   y="0"
   width="1690"
   height="210.60001"
   id="rect4105"
   style="fill:#2f2f82;stroke-width:1.2257" />




<g
   id="g34"
   transform="matrix(1.0306459,0,0,1,437.39529,3.1640625e-5)"><g
     id="g4117"
     transform="matrix(0.68352741,0,0,1,122.28305,-230.39999)">
	<rect
   x="383.5"
   y="272.39999"
   width="126.6"
   height="126.6"
   id="rect4107"
   style="fill:#ffffff" />
	<rect
   x="214.89999"
   y="230.39999"
   width="126.6"
   height="126.6"
   id="rect4109"
   style="fill:#fdec0a" />
	<polygon
   points="552.2,441 552.2,314.4 510.2,272.4 510.2,399 "
   id="polygon4111"
   style="fill:#141415" />
	<polygon
   points="383.5,399 383.5,272.4 341.5,230.4 341.5,357 "
   id="polygon4113"
   style="fill:#be2026" />
	<path
   d="m 510.2,399 c 0,0 -11.3,0 -9.9,0 v -18.3 c -2.7,0.7 -5.1,1.1 -7.1,1.1 -1.3,0 -2.5,-0.3 -3.7,-0.9 -1.2,-0.6 -1.8,-2.5 -1.8,-5.7 v -23.3 h 12.6 v -16.1 h -12.6 v -20.9 l -23.5,0.4 -0.4,20.6 h -9.4 V 352 h 9.4 v 19.9 l -0.1,7.4 c 0,7.2 1.8,12.4 5.4,15.6 2.1,2 5,3.3 8.6,4.1 h -22.4 0.3 L 433,364.6 451.5,335.9 h -20.4 l -6.5,11.1 c -0.4,0.7 -0.6,1.1 -0.7,1.3 -0.7,1.2 -1.2,2.1 -1.7,2.9 -0.4,-0.7 -0.7,-1.3 -0.9,-1.6 -0.4,-0.7 -0.8,-1.3 -1.1,-1.9 l -6.5,-11.8 h -27.5 l 19.4,29.7 -22.1,33.4 h 0.1 -0.1 l -42,-42 h -22.8 c 4.6,-1.1 8.5,-2.9 11.7,-5.4 5.6,-4.4 9.1,-9.7 10.5,-15.9 l -23.1,-1.6 c -1,5.2 -4.1,7.8 -9.5,7.8 -3.7,0 -6.3,-1 -7.6,-2.9 -1.3,-1.9 -2,-4.9 -2.1,-8.8 H 341 c 0,-1.5 0.1,-2.7 0.1,-3.6 0,-10.6 -3.1,-18.9 -9.3,-25 -6.2,-6.1 -14.4,-9.2 -24.5,-9.2 -10.4,0 -18.8,3.3 -25,9.7 -6.3,6.5 -9.4,14.5 -9.4,23.9 0,9.1 3.2,16.7 9.5,22.9 4.1,4 9.1,6.7 15,8.1 h -40.1 v -64.4 h 17.6 v -20.3 h -59.8 v 20.3 h 17.6 V 357 h -17.6 l 84,84 H 552.4 Z M 307.4,307 c 2.5,0 4.5,0.7 6.2,2.2 1.7,1.5 2.5,4.3 2.6,8.6 h -17.6 c 0,-7.2 3,-10.8 8.8,-10.8 z m 96.3,92 12.4,-20.2 11.6,20.2 z"
   id="path4115"
   inkscape:connector-curvature="0"
   style="fill:#010101" />
</g><text
     transform="scale(0.82659179,1.209787)"
     font-size="42.9782"
     id="text4119"
     x="87.717628"
     y="98.17514"
     style="font-size:35.5254px;font-family:Montserrat-ExtraBold;fill:#ffffff;stroke-width:0.826592"><tspan
       style="font-style:normal;font-variant:normal;font-weight:normal;font-stretch:normal;font-family:Lato;-inkscape-font-specification:Lato"
       id="tspan23">Read more</tspan></text><text
     transform="scale(0.82659179,1.209787)"
     font-size="42.9782"
     id="text4121"
     x="623.96301"
     y="98.175385"
     style="font-size:35.5254px;font-family:Montserrat-ExtraBold;fill:#ffffff;stroke-width:0.826592">about dezign</text></g>


</svg>
