<?xml version="1.0" encoding="UTF-8" standalone="no"?>
<svg
   xmlns:dc="http://purl.org/dc/elements/1.1/"
   xmlns:cc="http://creativecommons.org/ns#"
   xmlns:rdf="http://www.w3.org/1999/02/22-rdf-syntax-ns#"
   xmlns:svg="http://www.w3.org/2000/svg"
   xmlns="http://www.w3.org/2000/svg"
   xmlns:sodipodi="http://sodipodi.sourceforge.net/DTD/sodipodi-0.dtd"
   xmlns:inkscape="http://www.inkscape.org/namespaces/inkscape"
   version="1.1"
   id="Слой_1"
   x="0px"
   y="0px"
   viewBox="0 0 768 376.00001"
   enable-background="new 0 0 768 768"
   xml:space="preserve"
   sodipodi:docname="blog.svg"
   inkscape:version="1.0.1 (1.0.1+r74)"
   width="768"
   height="376"><metadata
   id="metadata4103"><rdf:RDF><cc:Work
       rdf:about=""><dc:format>image/svg+xml</dc:format><dc:type
         rdf:resource="http://purl.org/dc/dcmitype/StillImage" /></cc:Work></rdf:RDF></metadata><defs
   id="defs4101" /><sodipodi:namedview
   pagecolor="#ffffff"
   bordercolor="#666666"
   borderopacity="1"
   objecttolerance="10"
   gridtolerance="10"
   guidetolerance="10"
   inkscape:pageopacity="0"
   inkscape:pageshadow="2"
   inkscape:window-width="1920"
   inkscape:window-height="1171"
   id="namedview4099"
   showgrid="false"
   inkscape:zoom="1.2552083"
   inkscape:cx="527.87763"
   inkscape:cy="166.61123"
   inkscape:window-x="3840"
   inkscape:window-y="0"
   inkscape:window-maximized="1"
   inkscape:current-layer="Слой_1"
   inkscape:document-rotation="0" />
<text
   font-size="180"
   id="text4036"
   style="font-size:179.703px;font-family:FranklinGothic-Heavy;fill:#ffffff;stroke-width:0.99835"
   x="174.67328"
   y="247.8485"
   transform="scale(1.0016524,0.99835031)">Text</text>


<g
   id="g4042"
   transform="matrix(1,0,0,0.9967034,-30,-184.14733)">
	<g
   id="g4040">
		<rect
   x="30"
   y="206"
   width="709.5"
   height="355.89999"
   id="rect4038"
   style="fill:#010101" />
	</g>
</g>
<rect
   x="354.70001"
   y="138.08685"
   width="179.2"
   height="178.60925"
   id="rect4044"
   style="fill:#ffffff;stroke-width:0.99835" />
<polygon
   points="623.4,382.8 563.9,323.3 563.9,502.6 623.4,502.6 "
   id="polygon4046"
   style="fill:#2f2f82"
   transform="matrix(1,0,0,0.9967034,-30,-184.14733)" />
<rect
   x="116"
   y="78.88269"
   width="179.2"
   height="178.60925"
   id="rect4048"
   style="fill:#fdec0a;stroke-width:0.99835" />
<polygon
   points="623.4,382.8 563.9,323.3 563.9,502.6 623.4,562 "
   id="polygon4050"
   style="fill:#2f2f82"
   transform="matrix(1,0,0,0.9967034,-30,-184.14733)" />
<polygon
   points="384.7,323.3 325.3,263.9 325.3,443.1 384.7,502.6 "
   id="polygon4052"
   style="fill:#be2026"
   transform="matrix(1,0,0,0.9967034,-30,-184.14733)" />
<path
   d="m 533.9,316.79581 c 0,0 -16,0 -14,0 v -25.81462 c -3.9,0.99671 -7.2,1.49506 -10,1.49506 -1.8,0 -3.6,-0.39868 -5.3,-1.29573 -1.7,-0.79735 -2.5,-3.48845 -2.5,-7.97361 V 250.3157 h 17.8 v -22.72485 h -17.8 v -29.50242 l -33.3,0.49835 -0.5,29.00407 h -13.4 v 22.72485 h 13.4 v 28.10702 l -0.1,10.4654 c 0,10.06669 2.5,17.44231 7.6,22.02714 3,2.79077 7.1,4.6845 12.2,5.78087 h -31.7 0.4 L 424.8,268.15669 451,227.59085 h -29 l -9.2,15.64824 c -0.5,0.89704 -0.9,1.59474 -1,1.79407 -0.9,1.69439 -1.7,2.99012 -2.4,3.98682 -0.5,-1.09638 -0.9,-1.79407 -1.2,-2.29243 -0.6,-0.9967 -1.1,-1.89372 -1.5,-2.59142 l -9.2,-16.64494 h -39 l 27.5,41.86154 -31.4,47.24373 h 0.1 -0.1 L 295.2,257.39229 H 263 c 6.5,-1.49506 12,-3.98682 16.6,-7.57495 7.9,-6.17957 12.9,-13.65484 14.8,-22.42583 l -32.7,-2.19274 c -1.3,7.27592 -5.8,10.96373 -13.4,10.96373 -5.3,0 -8.8,-1.39538 -10.7,-4.08648 -1.9,-2.6911 -2.9,-6.87725 -3,-12.45879 h 59.9 c 0.1,-2.19275 0.1,-3.88715 0.1,-5.08318 0,-14.8509 -4.4,-26.61198 -13.2,-35.28331 -8.8,-8.67132 -20.4,-12.95715 -34.7,-12.95715 -14.8,0 -26.6,4.58484 -35.4,13.7545 -8.8,9.16968 -13.3,20.43244 -13.3,33.68858 0,12.85748 4.5,23.62187 13.4,32.2932 5.8,5.58153 12.9,9.369 21.2,11.36242 h -56.8 v -90.70002 h 24.9 v -28.60538 h -92 v 28.60538 H 141 v 90.79968 h -25 l 118.9,118.50804 h 358.5 z m -287,-129.87046 c 3.5,0 6.4,0.99672 8.8,3.08979 2.4,2.09308 3.6,6.07988 3.6,12.15978 h -24.9 c 0.1,-10.16638 4.3,-15.24957 12.5,-15.24957 z m 136.4,129.87046 17.5,-28.50571 16.4,28.50571 z"
   id="path4054"
   inkscape:connector-curvature="0"
   style="fill:#010101;stroke-width:0.99835" />
<g
   id="g4060"
   transform="matrix(1.0824524,0,0,1.0661799,-32.473572,-223.18707)">
	<g
   id="g4058"
   transform="matrix(1,0,0,0.99063634,0,5.2623216)">
		<rect
   x="30"
   y="206"
   width="709.5"
   height="355.89999"
   id="rect4056"
   style="fill:#2f2f82" />
	</g>
</g>
<rect
   x="354.70001"
   y="138.08685"
   width="179.2"
   height="178.60925"
   id="rect4062"
   style="fill:#ffffff;stroke-width:0.99835" />
<polygon
   points="623.4,382.8 563.9,323.3 563.9,502.6 623.4,502.6 "
   id="polygon4064"
   style="fill:#2f2f82"
   transform="matrix(1,0,0,0.9967034,-30,-184.14733)" />
<rect
   x="116"
   y="78.88269"
   width="179.2"
   height="178.60925"
   id="rect4066"
   style="fill:#fdec0a;stroke-width:0.99835" />
<polygon
   points="623.4,382.8 563.9,323.3 563.9,502.6 623.4,562 "
   id="polygon4068"
   style="fill:#141415"
   transform="matrix(1,0,0,0.9967034,-30,-184.14733)" />
<polygon
   points="384.7,323.3 325.3,263.9 325.3,443.1 384.7,502.6 "
   id="polygon4070"
   style="fill:#be2026"
   transform="matrix(1,0,0,0.9967034,-30,-184.14733)" />
<path
   d="m 533.9,316.79581 c 0,0 -16,0 -14,0 v -25.81462 c -3.9,0.99671 -7.2,1.49506 -10,1.49506 -1.8,0 -3.6,-0.39868 -5.3,-1.29573 -1.7,-0.79735 -2.5,-3.48845 -2.5,-7.97361 V 250.3157 h 17.8 v -22.72485 h -17.8 v -29.50242 l -33.3,0.49835 -0.5,29.00407 h -13.4 v 22.72485 h 13.4 v 28.10702 l -0.1,10.4654 c 0,10.06669 2.5,17.44231 7.6,22.02714 3,2.79077 7.1,4.6845 12.2,5.78087 h -31.7 0.4 L 424.8,268.15669 451,227.59085 h -29 l -9.2,15.64824 c -0.5,0.89704 -0.9,1.59474 -1,1.79407 -0.9,1.69439 -1.7,2.99012 -2.4,3.98682 -0.5,-1.09638 -0.9,-1.79407 -1.2,-2.29243 -0.6,-0.9967 -1.1,-1.89372 -1.5,-2.59142 l -9.2,-16.64494 h -39 l 27.5,41.86154 -31.4,47.24373 h 0.1 -0.1 L 295.2,257.39229 H 263 c 6.5,-1.49506 12,-3.98682 16.6,-7.57495 7.9,-6.17957 12.9,-13.65484 14.8,-22.42583 l -32.7,-2.19274 c -1.3,7.27592 -5.8,10.96373 -13.4,10.96373 -5.3,0 -8.8,-1.39538 -10.7,-4.08648 -1.9,-2.6911 -2.9,-6.87725 -3,-12.45879 h 59.9 c 0.1,-2.19275 0.1,-3.88715 0.1,-5.08318 0,-14.8509 -4.4,-26.61198 -13.2,-35.28331 -8.8,-8.67132 -20.4,-12.95715 -34.7,-12.95715 -14.8,0 -26.6,4.58484 -35.4,13.7545 -8.8,9.16968 -13.3,20.43244 -13.3,33.68858 0,12.85748 4.5,23.62187 13.4,32.2932 5.8,5.58153 12.9,9.369 21.2,11.36242 h -56.8 v -90.70002 h 24.9 V 138.08689 H 116 v 28.60538 h 24.9 v 90.79968 H 116 l 118.9,118.50804 h 358.5 z m -287,-129.87046 c 3.5,0 6.4,0.99672 8.8,3.08979 2.4,2.09308 3.6,6.07988 3.6,12.15978 h -24.9 c 0.1,-10.16638 4.3,-15.24957 12.5,-15.24957 z m 136.4,129.87046 17.5,-28.50571 16.4,28.50571 z"
   id="path4072"
   inkscape:connector-curvature="0"
   style="fill:#010101;stroke-width:0.99835" />
<g
   id="g4096"
   transform="matrix(1,0,0,0.9967034,-30,-184.14733)">
	<path
   d="m 398,318.5 h -4.5 c -0.1,-0.5 -0.2,-1.1 -0.2,-1.7 -0.8,1.3 -2.1,1.9 -3.8,1.9 -1.4,0 -2.5,-0.4 -3.2,-1.1 -0.7,-0.7 -1,-1.5 -1,-2.5 0,-1.3 0.6,-2.3 1.7,-3.1 1.1,-0.8 3.2,-1.2 6.1,-1.4 v -0.3 c 0,-0.5 -0.1,-0.9 -0.4,-1 -0.3,-0.1 -0.6,-0.3 -1,-0.3 -1.1,0 -1.7,0.4 -1.8,1.3 l -4.3,-0.4 c 0.6,-2.5 2.7,-3.7 6.2,-3.7 1,0 1.8,0.1 2.6,0.3 0.8,0.2 1.4,0.5 1.9,0.9 0.5,0.4 0.8,0.8 0.9,1.3 0.1,0.5 0.2,1.3 0.2,2.6 v 4.8 c 0.2,1 0.3,1.8 0.6,2.4 z m -4.9,-5.6 c -2,0.2 -3,0.8 -3,1.9 0,0.7 0.4,1.1 1.2,1.1 0.5,0 0.9,-0.1 1.3,-0.4 0.4,-0.3 0.5,-1 0.5,-2 z"
   id="path4074"
   inkscape:connector-curvature="0"
   style="fill:#ffffff" />
	<path
   d="M 402.7,318.5 H 400 v -16 h 4.6 v 5.5 c 0.6,-1.1 1.7,-1.7 3.1,-1.7 1,0 1.8,0.3 2.5,0.8 0.7,0.5 1.2,1.3 1.5,2.2 0.3,0.9 0.5,2 0.5,3 0,1.9 -0.4,3.5 -1.3,4.6 -0.9,1.1 -2.1,1.8 -3.8,1.8 -1.7,0 -3,-0.6 -3.8,-1.9 -0.3,0.5 -0.5,1.1 -0.6,1.7 z m 1.9,-4.4 c 0,1.2 0.5,1.8 1.4,1.8 0.5,0 0.9,-0.2 1.1,-0.6 0.2,-0.4 0.4,-1.3 0.4,-2.6 0,-1.4 -0.1,-2.4 -0.4,-2.7 -0.3,-0.3 -0.7,-0.6 -1.1,-0.6 -0.3,0 -0.7,0.1 -0.9,0.4 -0.2,0.3 -0.4,0.7 -0.4,1.2 v 3.1 z"
   id="path4076"
   inkscape:connector-curvature="0"
   style="fill:#ffffff" />
	<path
   d="m 419.9,318.8 c -2,0 -3.5,-0.6 -4.7,-1.8 -1.2,-1.2 -1.7,-2.7 -1.7,-4.3 0,-1.8 0.6,-3.3 1.8,-4.5 1.2,-1.2 2.8,-1.8 4.7,-1.8 2,0 3.5,0.6 4.7,1.8 1.2,1.2 1.8,2.6 1.8,4.4 0,1.8 -0.6,3.3 -1.8,4.5 -1.2,1.2 -2.8,1.7 -4.8,1.7 z m 0.1,-2.9 c 0.7,0 1.2,-0.4 1.3,-1.1 0.1,-0.7 0.2,-1.5 0.2,-2.4 0,-1.1 -0.1,-1.9 -0.3,-2.4 -0.2,-0.5 -0.6,-0.7 -1.2,-0.7 -0.5,0 -0.9,0.3 -1.2,0.8 -0.3,0.5 -0.4,1.3 -0.4,2.5 0,1.4 0.1,2.3 0.4,2.7 0.3,0.4 0.7,0.6 1.2,0.6 z"
   id="path4078"
   inkscape:connector-curvature="0"
   style="fill:#ffffff" />
	<path
   d="m 440,306.6 v 11.9 h -4.3 v -2 c -0.6,1.5 -1.9,2.2 -3.7,2.2 -1.1,0 -2,-0.3 -2.6,-0.9 -0.6,-0.6 -0.9,-1.5 -0.9,-2.7 v -8.5 h 4.7 v 7.5 c 0,0.5 0.1,0.8 0.2,1 0.1,0.2 0.4,0.3 0.8,0.3 0.4,0 0.7,-0.1 1,-0.4 0.3,-0.3 0.4,-0.7 0.4,-1.2 v -7.1 h 4.4 z"
   id="path4080"
   inkscape:connector-curvature="0"
   style="fill:#ffffff" />
	<path
   d="m 449.8,306.6 v 3 h -2.4 v 4.4 c 0,0.6 0.1,1 0.3,1.1 0.2,0.1 0.5,0.2 0.7,0.2 0.4,0 0.8,-0.1 1.3,-0.2 v 3.3 c -0.9,0.2 -1.8,0.3 -2.7,0.3 -1.4,0 -2.5,-0.3 -3.2,-0.9 -0.7,-0.6 -1,-1.6 -1,-3 v -1.4 -3.8 H 441 v -3 h 1.8 l 0.1,-3.9 4.4,-0.1 v 3.9 h 2.5 z"
   id="path4082"
   inkscape:connector-curvature="0"
   style="fill:#ffffff" />
	<path
   d="m 467.2,318.5 v -37 h 14.3 c 6.2,0 10.9,1.8 14,5.5 3.1,3.7 4.6,7.9 4.6,12.8 0,5.5 -1.7,10 -5,13.5 -3.3,3.5 -7.6,5.2 -12.9,5.2 z m 11.4,-8.5 h 3 c 1.9,0 3.5,-0.9 4.8,-2.7 1.3,-1.8 1.9,-4.3 1.9,-7.5 0,-2.7 -0.6,-5 -1.7,-7 -1.1,-2 -2.8,-2.9 -5,-2.9 h -3 z"
   id="path4084"
   inkscape:connector-curvature="0"
   style="fill:#ffffff" />
	<path
   d="m 522.7,308.6 10.1,0.7 c -0.6,2.7 -2.1,5 -4.6,6.9 -2.4,1.9 -5.8,2.9 -9.9,2.9 -4.6,0 -8.3,-1.3 -11.1,-4 -2.8,-2.7 -4.1,-6 -4.1,-10 0,-4.1 1.4,-7.6 4.1,-10.4 2.7,-2.8 6.4,-4.3 10.9,-4.3 4.4,0 8,1.3 10.7,4 2.7,2.7 4.1,6.3 4.1,10.9 0,0.4 0,0.9 0,1.6 h -18.5 c 0,1.7 0.3,3 0.9,3.9 0.6,0.8 1.7,1.3 3.3,1.3 2.3,-0.1 3.7,-1.2 4.1,-3.5 z m -0.7,-7.1 c 0,-1.9 -0.4,-3.1 -1.1,-3.8 -0.7,-0.6 -1.6,-1 -2.7,-1 -2.6,0 -3.8,1.6 -3.8,4.7 h 7.6 z"
   id="path4086"
   inkscape:connector-curvature="0"
   style="fill:#ffffff" />
	<path
   d="m 559.4,311.7 v 6.9 h -24.3 v -6 l 11.6,-14.9 c -1.4,0.1 -2.3,0.1 -2.8,0.1 h -7.8 V 291 H 559 v 5.8 l -11.8,15 h 1.4 c 0.3,0 0.5,0 0.8,0 h 10 z"
   id="path4088"
   inkscape:connector-curvature="0"
   style="fill:#ffffff" />
	<path
   d="m 574,280.4 v 8.6 h -10.8 v -8.6 z m 0,10.6 v 27.6 H 563.2 V 291 Z"
   id="path4090"
   inkscape:connector-curvature="0"
   style="fill:#ffffff" />
	<path
   d="m 608.4,284.7 -0.3,7.4 h -0.5 c -1,-0.1 -1.7,-0.1 -2.1,-0.1 -1.7,0 -2.7,0.3 -3,1 2.1,1.7 3.1,3.7 3.1,6.2 0,2.8 -1.1,4.9 -3.3,6.4 -2.2,1.4 -5.3,2.1 -9.1,2.1 -0.1,0 -0.6,0 -1.4,-0.1 -0.8,0 -1.2,-0.1 -1.2,-0.1 -1.8,0 -2.6,0.5 -2.6,1.4 0,0.8 0.8,1.2 2.3,1.3 l 8.9,0.4 c 3.2,0.1 5.6,1 7.1,2.7 1.5,1.7 2.3,3.6 2.3,5.8 0,2.6 -1.1,4.8 -3.4,6.5 -2.3,1.7 -6.6,2.5 -13.1,2.5 -10,0 -15,-2.3 -15,-6.9 0,-2.5 1.3,-4.3 4,-5.3 -1.7,-1.2 -2.6,-2.6 -2.6,-4.3 0,-2.7 1.8,-4.8 5.3,-6.1 -2.9,-1.3 -4.4,-3.4 -4.4,-6.4 0,-2.7 1.2,-4.8 3.6,-6.4 2.4,-1.5 5.7,-2.3 9.8,-2.3 1.9,0 3.6,0.2 5.2,0.6 0.6,-4.3 2.9,-6.5 6.9,-6.5 0.6,0 1.9,0.1 3.5,0.2 z m -18.6,33.5 c -0.4,0 -0.8,0 -1.2,0 -1.9,0 -2.8,0.6 -2.8,1.7 0,1.1 0.7,1.8 2.1,2.1 1.4,0.3 3.3,0.5 5.7,0.5 2.2,0 3.7,-0.2 4.3,-0.6 0.6,-0.4 1,-0.9 1,-1.6 0,-0.5 -0.1,-0.9 -0.4,-1.2 -0.3,-0.3 -1,-0.5 -2.1,-0.6 z m 2.8,-15.7 c 2.1,0 3.1,-1.1 3.1,-3.3 0,-2.3 -1.1,-3.4 -3.2,-3.4 -2.1,0 -3.2,1.2 -3.2,3.5 0,2.1 1.1,3.2 3.3,3.2 z"
   id="path4092"
   inkscape:connector-curvature="0"
   style="fill:#ffffff" />
	<path
   d="m 638.2,318.5 h -10.8 v -17.3 c 0,-1.4 -0.2,-2.3 -0.7,-2.7 -0.4,-0.4 -1,-0.6 -1.7,-0.6 -2,0 -3,1.4 -3,4.1 v 16.6 H 611.2 V 291 h 10 v 3.9 c 1.5,-3 4.1,-4.5 7.9,-4.5 2,0 3.7,0.4 5.1,1.2 1.4,0.8 2.4,1.8 3,3 0.6,1.2 0.9,3.3 0.9,6.4 v 17.5 z"
   id="path4094"
   inkscape:connector-curvature="0"
   style="fill:#ffffff" />
</g>
</svg>
