<?xml version="1.0" encoding="utf-8"?>
<!-- Generator: Adobe Illustrator 18.1.1, SVG Export Plug-In . SVG Version: 6.00 Build 0)  -->
<svg version="1.1" id="Слой_1" xmlns="http://www.w3.org/2000/svg" xmlns:xlink="http://www.w3.org/1999/xlink" x="0px" y="0px"
	 viewBox="0 0 768 768" enable-background="new 0 0 768 768" xml:space="preserve">
<g>
	<polygon fill="#010101" points="768,768 0,768 0,0 768,0 768,512 640,512 640,640 768,640 	"/>
	<polygon fill="#FFFFFF" points="384,128 256,128 256,256 384,256 384,384 512,384 512,256 512,128 	"/>
	<path fill="#FFFFFF" d="M512,640c0,0-102.7-9.7-128-128S256,384,256,384h128c0,0,102.7,9.7,128,128c25.2,118.3,128,128,128,128H512
		z"/>
	<g>
		<path fill="#FFFFFF" d="M10.5,362.5v-87.8H55c9.3,0,16,2.3,20.3,7s6.4,10,6.4,16c0,4.4-1.2,8.3-3.7,11.9c-2.5,3.5-6.1,6-11,7.3
			c11.3,2.7,17,9.6,17,20.4c0,6.5-2,12.3-6,17.4c-4,5.1-12.6,7.7-25.7,7.7L10.5,362.5L10.5,362.5z M35.3,308.4h12.5
			c3.1,0,5.3-0.8,6.6-2.4c1.3-1.6,1.9-3.3,1.9-5.1c0-4.9-3-7.3-9-7.3h-12L35.3,308.4L35.3,308.4z M35.3,343h13.1
			c3.2,0,5.6-0.8,7.2-2.4c1.5-1.6,2.3-3.4,2.3-5.4s-0.7-3.9-2.2-5.6c-1.5-1.7-4.2-2.5-8.1-2.5H35.3L35.3,343L35.3,343z"/>
		<path fill="#FFFFFF" d="M118.7,362.5H94.2v-65.4h21.4v13.5c2.5-9.8,8.1-14.7,17-14.7c0.9,0,2.2,0.1,3.7,0.2V319
			c-1.8-0.4-3.4-0.6-4.8-0.6c-8.5,0-12.7,4.7-12.7,14.2L118.7,362.5L118.7,362.5z"/>
		<path fill="#FFFFFF" d="M210.3,362.5h-24.4c-0.6-2.8-0.9-5.8-0.9-9.1c-4.6,7-11.6,10.5-21,10.5c-7.7,0-13.5-2-17.3-5.9
			s-5.8-8.5-5.8-13.6c0-6.9,3.1-12.5,9.4-16.7c6.3-4.3,17.4-6.8,33.4-7.7v-1.5c0-2.9-0.7-4.8-2-5.7c-1.3-0.9-3.2-1.4-5.8-1.4
			c-5.9,0-9.2,2.4-9.9,7.1l-23.4-2.2c3.3-13.7,14.7-20.5,34.1-20.5c5.3,0,10.1,0.5,14.5,1.6c4.4,1.1,7.9,2.7,10.5,4.9
			c2.6,2.2,4.3,4.6,5.2,7.1c0.9,2.5,1.3,7.3,1.3,14.3v26.1C208.3,354.8,208.9,359,210.3,362.5z M183.7,331.9
			c-10.9,1.2-16.4,4.6-16.4,10.5c0,3.9,2.2,5.9,6.5,5.9c2.7,0,5.1-0.8,7-2.5c1.9-1.6,2.9-5.2,2.9-10.8V331.9z"/>
		<path fill="#FFFFFF" d="M285.4,362.5h-25.7v-41.1c0-3.4-0.5-5.6-1.6-6.5c-1.1-0.9-2.4-1.4-3.9-1.4c-4.7,0-7,3.2-7,9.8v39.3h-25.7
			v-65.4h23.8v9.3c3.5-7.1,9.8-10.6,18.8-10.6c4.8,0,8.8,0.9,12,2.7c3.3,1.8,5.6,4.2,7,7.1c1.4,2.9,2.1,7.9,2.1,15.1L285.4,362.5
			L285.4,362.5z"/>
		<path fill="#FFFFFF" d="M362.8,362.5h-24.1v-8.7c-3.5,6.7-9.4,10-17.6,10c-7.6,0-13.7-2.9-18.4-8.8c-4.7-5.9-7-14.4-7-25.7
			c0-10.5,2.4-18.8,7.1-25c4.7-6.2,11-9.3,18.7-9.3c6.5,0,11.8,2.5,16,7.4v-27.7h25.3L362.8,362.5L362.8,362.5z M337.5,320.5
			c0-5.9-2.4-8.8-7.3-8.8c-3.4,0-5.6,1.9-6.6,5.6c-1.1,3.7-1.6,8.3-1.6,13.7c0,10.6,2.7,15.9,8.1,15.9c2.1,0,3.8-0.8,5.2-2.5
			c1.4-1.7,2.2-4.2,2.2-7.6L337.5,320.5L337.5,320.5z"/>
	</g>
	<rect x="640" y="512" fill="#FFFFFF" width="128" height="128"/>
	<rect x="128" y="128" fill="#2F2F82" width="128" height="128"/>
	<rect x="128" y="640" fill="#BE2026" width="128" height="128"/>
	<rect x="128" y="470.8" fill="#FDEC0A" width="128" height="169.1"/>
	<rect x="128" y="384" fill="#FFFFFF" width="128" height="128"/>
</g>
</svg>
