<?xml version="1.0" encoding="UTF-8" standalone="no"?>
<svg
   xmlns:dc="http://purl.org/dc/elements/1.1/"
   xmlns:cc="http://creativecommons.org/ns#"
   xmlns:rdf="http://www.w3.org/1999/02/22-rdf-syntax-ns#"
   xmlns:svg="http://www.w3.org/2000/svg"
   xmlns="http://www.w3.org/2000/svg"
   xmlns:sodipodi="http://sodipodi.sourceforge.net/DTD/sodipodi-0.dtd"
   xmlns:inkscape="http://www.inkscape.org/namespaces/inkscape"
   version="1.1"
   id="Слой_1"
   x="0px"
   y="0px"
   viewBox="0 0 768 375"
   enable-background="new 0 0 768 385.3"
   xml:space="preserve"
   sodipodi:docname="design.svg"
   width="768"
   height="375"
   inkscape:version="1.0.1 (1.0.1+r74)"><metadata
   id="metadata459"><rdf:RDF><cc:Work
       rdf:about=""><dc:format>image/svg+xml</dc:format><dc:type
         rdf:resource="http://purl.org/dc/dcmitype/StillImage" /></cc:Work></rdf:RDF></metadata><defs
   id="defs457" /><sodipodi:namedview
   pagecolor="#ffffff"
   bordercolor="#666666"
   borderopacity="1"
   objecttolerance="10"
   gridtolerance="10"
   guidetolerance="10"
   inkscape:pageopacity="0"
   inkscape:pageshadow="2"
   inkscape:window-width="1920"
   inkscape:window-height="1171"
   id="namedview455"
   showgrid="false"
   inkscape:zoom="1.1197917"
   inkscape:cx="392.62924"
   inkscape:cy="187.70233"
   inkscape:window-x="3840"
   inkscape:window-y="0"
   inkscape:window-maximized="1"
   inkscape:current-layer="Слой_1"
   inkscape:document-rotation="0" />
<g
   id="g438"
   transform="scale(1,0.97326761)">
	<g
   id="g436">
		<rect
   width="768"
   height="385.29999"
   id="rect434"
   x="0"
   y="0"
   style="fill:#010101" />
	</g>
</g>
<g
   id="g452"
   transform="matrix(1,0,0,1.0833593,-0.7,-24.188408)">
	<path
   d="M 84.5,245.7 V 115.8 h 50.2 c 21.8,0 38.2,6.5 49,19.4 10.8,12.9 16.3,27.9 16.3,44.9 0,19.4 -5.8,35.2 -17.5,47.3 -11.6,12.1 -26.8,18.2 -45.3,18.2 H 84.5 Z m 39.8,-29.9 h 10.4 c 6.6,0 12.2,-3.2 16.7,-9.6 4.5,-6.4 6.8,-15.1 6.8,-26.2 0,-9.4 -2,-17.6 -6,-24.5 -4,-6.8 -9.8,-10.3 -17.5,-10.3 h -10.4 z"
   id="path440"
   inkscape:connector-curvature="0"
   style="fill:#ffffff" />
	<path
   d="m 279.4,210.9 35.4,2.4 c -2.1,9.5 -7.4,17.6 -16,24.3 -8.6,6.7 -20.2,10 -34.9,10 -16.3,0 -29.3,-4.7 -39,-14.1 -9.7,-9.4 -14.6,-21.1 -14.6,-35.1 0,-14.5 4.8,-26.7 14.4,-36.6 9.6,-10 22.4,-14.9 38.3,-14.9 15.5,0 28,4.7 37.5,14.1 9.5,9.4 14.3,22.2 14.3,38.3 0,1.3 0,3.2 -0.1,5.5 H 250 c 0.1,6.1 1.2,10.6 3.2,13.6 2,2.9 5.9,4.4 11.6,4.4 8.3,0 13.1,-3.9 14.6,-11.9 z m -2.6,-25.1 c -0.1,-6.5 -1.4,-10.9 -3.9,-13.2 -2.6,-2.3 -5.7,-3.4 -9.5,-3.4 -9,0 -13.5,5.5 -13.5,16.6 z"
   id="path442"
   inkscape:connector-curvature="0"
   style="fill:#ffffff" />
	<path
   d="m 408.3,221.6 v 24.1 H 323 v -21 l 40.8,-52.4 c -4.9,0.2 -8.2,0.3 -9.9,0.3 H 326.3 V 149 h 80.5 v 20.4 l -41.6,52.5 5,-0.1 c 1,-0.1 1.9,-0.1 2.8,-0.1 h 35.3 z"
   id="path444"
   inkscape:connector-curvature="0"
   style="fill:#ffffff" />
	<path
   d="m 459.5,111.7 v 30.1 h -38 v -30.1 z m 0,37.2 v 96.8 h -38 v -96.8 z"
   id="path446"
   inkscape:connector-curvature="0"
   style="fill:#ffffff" />
	<path
   d="m 580.3,126.9 -1,26 -1.8,-0.1 c -3.4,-0.2 -5.9,-0.3 -7.3,-0.3 -5.9,0 -9.5,1.2 -10.7,3.5 7.2,6 10.8,13.2 10.8,21.6 0,9.9 -3.9,17.3 -11.7,22.3 -7.8,5 -18.5,7.5 -31.9,7.5 -0.3,0 -2,-0.1 -4.9,-0.2 -2.8,-0.1 -4.2,-0.2 -4.4,-0.2 -6.2,0 -9.2,1.6 -9.2,4.8 0,2.8 2.7,4.3 8.2,4.5 l 31.1,1.3 c 11.4,0.5 19.7,3.7 25,9.5 5.3,5.8 7.9,12.7 7.9,20.5 0,9.3 -3.9,16.8 -11.8,22.7 -7.9,5.9 -23.3,8.8 -46.1,8.8 -35.2,0 -52.8,-8.1 -52.8,-24.3 0,-8.8 4.7,-15 14,-18.5 -6,-4.2 -9,-9.3 -9,-15.1 0,-9.5 6.2,-16.7 18.6,-21.5 -10.3,-4.5 -15.5,-12 -15.5,-22.5 0,-9.6 4.2,-17 12.6,-22.4 8.4,-5.4 19.9,-8 34.4,-8 6.7,0 12.7,0.7 18.2,2 2.2,-15.2 10.2,-22.7 24.1,-22.7 3,0.1 7.4,0.3 13.2,0.8 z m -65.2,117.5 c -1.4,-0.1 -2.8,-0.1 -4.2,-0.1 -6.5,0 -9.8,2 -9.8,6.1 0,3.7 2.5,6.2 7.5,7.2 5,1.1 11.6,1.6 19.9,1.6 7.9,0 12.9,-0.7 15.2,-2 2.3,-1.3 3.4,-3.2 3.4,-5.5 0,-1.6 -0.5,-3 -1.5,-4.1 -1,-1.1 -3.4,-1.8 -7.2,-1.9 z m 9.7,-55 c 7.4,0 11,-3.9 11,-11.7 0,-8 -3.8,-12 -11.3,-12 -7.5,0 -11.2,4.1 -11.2,12.2 -0.1,7.7 3.8,11.5 11.5,11.5 z"
   id="path448"
   inkscape:connector-curvature="0"
   style="fill:#ffffff" />
	<path
   d="m 684.9,245.7 h -38 v -60.9 c 0,-5 -0.8,-8.2 -2.3,-9.6 -1.6,-1.4 -3.5,-2.1 -5.9,-2.1 -6.9,0 -10.4,4.8 -10.4,14.5 v 58.1 h -38 v -96.8 h 35.2 v 13.7 c 5.2,-10.5 14.5,-15.7 27.9,-15.7 7,0 13,1.3 17.8,4 4.9,2.7 8.3,6.2 10.4,10.5 2.1,4.3 3.1,11.7 3.1,22.3 v 62 z"
   id="path450"
   inkscape:connector-curvature="0"
   style="fill:#ffffff" />
</g>
</svg>
