<?xml version="1.0" encoding="utf-8"?>
<!-- Generator: Adobe Illustrator 18.1.1, SVG Export Plug-In . SVG Version: 6.00 Build 0)  -->
<svg version="1.1" id="Слой_1" xmlns="http://www.w3.org/2000/svg" xmlns:xlink="http://www.w3.org/1999/xlink" x="0px" y="0px"
	 viewBox="0 0 595.3 787.1" enable-background="new 0 0 595.3 787.1" xml:space="preserve">
<g>
	<g>
		<g>
			<polygon fill="#2F2F82" points="298.1,313 351.7,366.6 351.7,420.1 324.9,420.1 351.7,446.9 351.7,473.6 378.5,473.6 378.5,313 
							"/>
			<polygon fill="#2F2F82" points="244.6,393.3 271.4,393.3 244.6,366.6 244.6,313 217.8,313 217.8,473.6 244.6,473.6 			"/>
			<polygon fill="#010101" points="244.6,366.6 271.4,393.3 298.1,393.3 324.9,420.1 351.7,420.1 298.1,366.6 			"/>
			<rect x="244.6" y="313" fill="#FDEC0A" width="53.6" height="53.5"/>
			<polygon fill="#FFFFFF" points="298.1,366.6 351.7,420.1 351.7,366.6 298.1,313 			"/>
			<path fill="#FFFFFF" d="M298.1,366.6l53.6,53.5L298.1,366.6z"/>
			<polygon fill="#BE2026" points="271.4,393.3 244.6,393.3 244.6,473.6 298.1,473.6 298.1,420.1 298.1,393.3 			"/>
			<polygon fill="#FFFFFF" points="324.9,420.1 298.1,393.3 298.1,420.1 298.1,473.6 351.7,473.6 351.7,446.9 			"/>
		</g>
	</g>
	<g>
		<path fill="#010101" d="M315.2,468.6H310v-1.9c-0.8,1.4-2.1,2.2-3.8,2.2c-1.6,0-3-0.6-4-1.9c-1-1.3-1.5-3.1-1.5-5.6
			c0-2.3,0.5-4.1,1.5-5.4c1-1.3,2.4-2,4.1-2c1.4,0,2.6,0.5,3.5,1.6v-6h5.5L315.2,468.6L315.2,468.6z M309.7,459.4
			c0-1.3-0.5-1.9-1.6-1.9c-0.7,0-1.2,0.4-1.5,1.2c-0.2,0.8-0.4,1.8-0.4,3c0,2.3,0.6,3.4,1.8,3.4c0.4,0,0.8-0.2,1.1-0.5
			c0.3-0.4,0.5-0.9,0.5-1.7L309.7,459.4L309.7,459.4z"/>
		<path fill="#010101" d="M327.5,463.5l5.2,0.4c-0.3,1.4-1.1,2.6-2.4,3.6c-1.3,1-3,1.5-5.1,1.5c-2.4,0-4.3-0.7-5.7-2.1
			c-1.4-1.4-2.1-3.1-2.1-5.1c0-2.1,0.7-3.9,2.1-5.4c1.4-1.4,3.3-2.2,5.6-2.2c2.3,0,4.1,0.7,5.5,2.1s2.1,3.2,2.1,5.6
			c0,0.2,0,0.5,0,0.8h-9.5c0,0.9,0.2,1.6,0.5,2c0.3,0.4,0.9,0.7,1.7,0.7C326.6,465.2,327.3,464.6,327.5,463.5z M327.1,459.8
			c0-1-0.2-1.6-0.6-1.9c-0.4-0.3-0.8-0.5-1.4-0.5c-1.3,0-2,0.8-2,2.4L327.1,459.8L327.1,459.8z"/>
		<path fill="#010101" d="M349.2,468.6h-5.3c-0.1-0.6-0.2-1.3-0.2-2c-1,1.5-2.5,2.3-4.6,2.3c-1.7,0-2.9-0.4-3.8-1.3
			c-0.8-0.9-1.2-1.8-1.2-2.9c0-1.5,0.7-2.7,2-3.6c1.4-0.9,3.8-1.5,7.3-1.7V459c0-0.6-0.1-1-0.4-1.2s-0.7-0.3-1.2-0.3
			c-1.3,0-2,0.5-2.2,1.5l-5.1-0.5c0.7-3,3.2-4.4,7.4-4.4c1.1,0,2.2,0.1,3.2,0.4c1,0.2,1.7,0.6,2.3,1.1c0.6,0.5,0.9,1,1.1,1.5
			c0.2,0.5,0.3,1.6,0.3,3.1v5.7C348.8,466.9,348.9,467.8,349.2,468.6z M343.4,461.9c-2.4,0.3-3.6,1-3.6,2.3c0,0.9,0.5,1.3,1.4,1.3
			c0.6,0,1.1-0.2,1.5-0.5c0.4-0.4,0.6-1.1,0.6-2.3V461.9z"/>
	</g>
</g>
</svg>
