<?xml version="1.0" encoding="utf-8"?>
<!-- Generator: Adobe Illustrator 18.1.1, SVG Export Plug-In . SVG Version: 6.00 Build 0)  -->
<svg version="1.1" id="Слой_1" xmlns="http://www.w3.org/2000/svg" xmlns:xlink="http://www.w3.org/1999/xlink" x="0px" y="0px"
	 viewBox="0 0 595.3 787.1" enable-background="new 0 0 595.3 787.1" xml:space="preserve">
<g>
	<rect x="179.1" y="274.5" fill="#010101" width="236.7" height="236.7"/>
</g>
<rect x="179" y="274.5" fill="#010101" width="236.7" height="236.7"/>
<g>
	<rect x="218.5" y="432.3" fill="#2F2F82" width="39.5" height="39.4"/>
	<path fill="#FFFFFF" d="M336.8,471.7c0,0-26.2-0.9-39.5-24.3c-9.2-16.3-39.5-15.2-39.5-15.2v-39.4c0,0,30.2-1.1,39.5,15.2
		c13.2,23.4,39.5,24.3,39.5,24.3V471.7z"/>
	<polygon fill="#FFFFFF" points="218.5,313.9 218.5,353.4 218.5,392.8 257.9,392.8 257.9,353.4 257.9,313.9 	"/>
	<g>
		<path fill="#FFFFFF" d="M279.7,393.4c-5.3,0-9.5-1.6-12.6-4.9c-3.1-3.3-4.7-7.1-4.7-11.5c0-4.7,1.6-8.7,4.9-11.9
			c3.2-3.2,7.5-4.7,12.6-4.7c5.2,0,9.4,1.6,12.6,4.7c3.2,3.1,4.8,7,4.8,11.8c0,4.7-1.6,8.7-4.8,11.9
			C289.3,391.8,285,393.4,279.7,393.4z M279.8,385.9c1.9,0,3.1-1,3.5-3c0.4-2,0.6-4.1,0.6-6.3c0-3-0.3-5.1-0.9-6.4
			c-0.6-1.3-1.7-2-3.3-2c-1.4,0-2.5,0.7-3.2,2c-0.7,1.4-1,3.6-1,6.7c0,3.6,0.3,6.1,1,7.2S278.5,385.9,279.8,385.9z"/>
		<path fill="#FFFFFF" d="M335.3,353.8l-0.3,8.5l-0.6,0c-1.1-0.1-1.9-0.1-2.4-0.1c-1.9,0-3.1,0.4-3.5,1.2c2.4,2,3.6,4.3,3.6,7.1
			c0,3.3-1.3,5.7-3.9,7.3c-2.6,1.6-6.1,2.4-10.5,2.4c-0.1,0-0.6,0-1.6-0.1c-0.9,0-1.4-0.1-1.4-0.1c-2,0-3,0.5-3,1.6
			c0,0.9,0.9,1.4,2.7,1.5l10.2,0.4c3.7,0.2,6.5,1.2,8.2,3.1c1.7,1.9,2.6,4.2,2.6,6.7c0,3-1.3,5.5-3.9,7.5c-2.6,1.9-7.6,2.9-15.1,2.9
			c-11.6,0-17.3-2.7-17.3-8c0-2.9,1.5-4.9,4.6-6.1c-2-1.4-3-3-3-5c0-3.1,2-5.5,6.1-7.1c-3.4-1.5-5.1-3.9-5.1-7.4
			c0-3.1,1.4-5.6,4.1-7.3c2.7-1.7,6.5-2.6,11.3-2.6c2.2,0,4.2,0.2,6,0.7c0.7-5,3.4-7.5,7.9-7.5C331.9,353.5,333.4,353.6,335.3,353.8
			z M313.8,392.4c-0.5,0-0.9,0-1.4,0c-2.2,0-3.2,0.7-3.2,2c0,1.2,0.8,2,2.4,2.4c1.6,0.4,3.8,0.5,6.5,0.5c2.6,0,4.2-0.2,5-0.7
			c0.7-0.4,1.1-1,1.1-1.8c0-0.5-0.2-1-0.5-1.4c-0.3-0.4-1.1-0.6-2.4-0.6L313.8,392.4z M317,374.3c2.4,0,3.6-1.3,3.6-3.8
			c0-2.6-1.2-3.9-3.7-3.9c-2.5,0-3.7,1.3-3.7,4C313.3,373,314.5,374.3,317,374.3z"/>
		<path fill="#FFFFFF" d="M354.1,393.4c-5.3,0-9.5-1.6-12.6-4.9c-3.1-3.3-4.7-7.1-4.7-11.5c0-4.7,1.6-8.7,4.9-11.9
			c3.2-3.2,7.5-4.7,12.6-4.7c5.2,0,9.4,1.6,12.6,4.7c3.2,3.1,4.8,7,4.8,11.8c0,4.7-1.6,8.7-4.8,11.9
			C363.7,391.8,359.5,393.4,354.1,393.4z M354.3,385.9c1.9,0,3.1-1,3.5-3c0.4-2,0.6-4.1,0.6-6.3c0-3-0.3-5.1-0.9-6.4
			c-0.6-1.3-1.7-2-3.3-2c-1.4,0-2.5,0.7-3.2,2c-0.7,1.4-1,3.6-1,6.7c0,3.6,0.3,6.1,1,7.2C351.9,385.3,352.9,385.9,354.3,385.9z"/>
	</g>
	<polygon fill="#FDEC0A" points="376.3,313.9 376.3,432.3 336.8,432.3 336.8,471.7 376.3,471.7 415.7,471.7 415.7,274.5 	"/>
	<polygon fill="#BE2026" points="376.3,313.9 218.5,313.9 218.5,274.5 415.7,274.5 	"/>
</g>
</svg>
