<?xml version="1.0" encoding="UTF-8" standalone="no"?>
<svg
   xmlns:dc="http://purl.org/dc/elements/1.1/"
   xmlns:cc="http://creativecommons.org/ns#"
   xmlns:rdf="http://www.w3.org/1999/02/22-rdf-syntax-ns#"
   xmlns:svg="http://www.w3.org/2000/svg"
   xmlns="http://www.w3.org/2000/svg"
   xmlns:sodipodi="http://sodipodi.sourceforge.net/DTD/sodipodi-0.dtd"
   xmlns:inkscape="http://www.inkscape.org/namespaces/inkscape"
   version="1.1"
   id="Слой_1"
   x="0px"
   y="0px"
   viewBox="0 0 768 767.99999"
   enable-background="new 0 0 768 768"
   xml:space="preserve"
   sodipodi:docname="menu.svg"
   width="768"
   height="768"
   inkscape:version="1.0.1 (1.0.1+r74)"><metadata
   id="metadata289"><rdf:RDF><cc:Work
       rdf:about=""><dc:format>image/svg+xml</dc:format><dc:type
         rdf:resource="http://purl.org/dc/dcmitype/StillImage" /></cc:Work></rdf:RDF></metadata><defs
   id="defs287" /><sodipodi:namedview
   pagecolor="#ffffff"
   bordercolor="#666666"
   borderopacity="1"
   objecttolerance="10"
   gridtolerance="10"
   guidetolerance="10"
   inkscape:pageopacity="0"
   inkscape:pageshadow="2"
   inkscape:window-width="1920"
   inkscape:window-height="1171"
   id="namedview285"
   showgrid="false"
   inkscape:zoom="0.62760415"
   inkscape:cx="178.1"
   inkscape:cy="149.03714"
   inkscape:window-x="3840"
   inkscape:window-y="0"
   inkscape:window-maximized="1"
   inkscape:current-layer="Слой_1"
   inkscape:document-rotation="0" />
<g
   id="g278"
   transform="matrix(2.156092,0,0,2.1579096,-443.93933,-451.00311)">
	<g
   id="g276">
		<rect
   x="205.89999"
   y="209"
   width="356.20001"
   height="355.89999"
   id="rect274"
   style="fill:#010101" />
	</g>
</g>
<g
   id="g282"
   transform="matrix(2.1560921,0,0,2.0756757,-443.83156,-426.24001)">
	<path
   d="m 451.7,436 h -34 v -55.9 c 0,-3.7 -0.5,-6.4 -1.6,-7.9 -1.1,-1.5 -3,-2.2 -5.8,-2.2 -6.6,0 -9.8,4.8 -9.8,14.3 V 436 h -33.7 v -55.9 c 0,-7.1 -2.8,-10.7 -8.3,-10.7 -5.7,0 -8.5,3.6 -8.5,10.7 V 436 h -33.8 v -89.4 h 31.5 v 12 c 5.6,-9.3 13.8,-13.9 24.5,-13.9 11.5,0 19.9,4.6 25.1,13.9 5.8,-9.3 14.7,-13.9 26.7,-13.9 5.7,0 10.8,1.2 15.2,3.6 4.4,2.4 7.5,5.5 9.5,9.3 2,3.8 2.9,9.6 2.9,17.5 V 436 Z"
   id="path280"
   inkscape:connector-curvature="0"
   style="fill:#ffffff" />
</g>
</svg>
