<?xml version="1.0" encoding="UTF-8" standalone="no"?>
<!-- Generator: Adobe Illustrator 18.1.1, SVG Export Plug-In . SVG Version: 6.00 Build 0)  -->

<svg
   xmlns:dc="http://purl.org/dc/elements/1.1/"
   xmlns:cc="http://creativecommons.org/ns#"
   xmlns:rdf="http://www.w3.org/1999/02/22-rdf-syntax-ns#"
   xmlns:svg="http://www.w3.org/2000/svg"
   xmlns="http://www.w3.org/2000/svg"
   xmlns:sodipodi="http://sodipodi.sourceforge.net/DTD/sodipodi-0.dtd"
   xmlns:inkscape="http://www.inkscape.org/namespaces/inkscape"
   version="1.1"
   id="Слой_1"
   x="0px"
   y="0px"
   viewBox="0 0 768 768"
   enable-background="new 0 0 768 768"
   xml:space="preserve"
   sodipodi:docname="pro.svg"
   width="768"
   height="768"
   inkscape:version="0.92.5 (2060ec1f9f, 2020-04-08)"><metadata
   id="metadata963"><rdf:RDF><cc:Work
       rdf:about=""><dc:format>image/svg+xml</dc:format><dc:type
         rdf:resource="http://purl.org/dc/dcmitype/StillImage" /></cc:Work></rdf:RDF></metadata><defs
   id="defs961" /><sodipodi:namedview
   pagecolor="#ffffff"
   bordercolor="#666666"
   borderopacity="1"
   objecttolerance="10"
   gridtolerance="10"
   guidetolerance="10"
   inkscape:pageopacity="0"
   inkscape:pageshadow="2"
   inkscape:window-width="1920"
   inkscape:window-height="1171"
   id="namedview959"
   showgrid="false"
   inkscape:zoom="0.88756632"
   inkscape:cx="384"
   inkscape:cy="384"
   inkscape:window-x="3840"
   inkscape:window-y="0"
   inkscape:window-maximized="1"
   inkscape:current-layer="Слой_1" />
<g
   id="g956">
	<rect
   width="768"
   height="767.59998"
   id="rect890"
   x="0"
   y="0"
   style="fill:#2f2f82" />
	<polygon
   points="640,512.2 768,640 768,512.2 "
   id="polygon892"
   style="fill:#ffffff" />
	<rect
   x="128.10001"
   y="128.39999"
   width="128"
   height="128"
   id="rect894"
   style="fill:#fdec0a" />
	<polygon
   points="384,384.2 256,384.2 128.1,256.3 256,256.3 256,128.4 384,256.3 "
   id="polygon896"
   style="fill:#be2026" />
	<rect
   x="384"
   y="256.29999"
   width="128"
   height="128"
   id="rect898"
   style="fill:#fdec0a" />
	<polygon
   points="640,512.2 512.1,512.2 384,384.2 512.1,384.2 512.1,256.3 640,384.2 "
   id="polygon900"
   style="fill:#be2026" />
	<rect
   x="640"
   y="384.20001"
   width="128"
   height="128"
   id="rect902"
   style="fill:#fdec0a" />
	<polygon
   points="128.1,256.3 0,256.3 0,128.4 0,0.4 128.1,128.4 "
   id="polygon904"
   style="fill:#be2026" />
	<rect
   y="256.29999"
   width="128"
   height="128"
   id="rect906"
   x="0"
   style="fill:#fdec0a" />
	<polygon
   points="256,512.2 128.1,512.2 0,384.2 128.1,384.2 128.1,256.3 256,384.2 "
   id="polygon908"
   style="fill:#be2026" />
	<rect
   x="256"
   y="384.20001"
   width="128"
   height="128"
   id="rect910"
   style="fill:#fdec0a" />
	<polygon
   points="512.1,640 384,640 256,512.2 384,512.2 384,384.2 512.1,512.2 "
   id="polygon912"
   style="fill:#be2026" />
	<rect
   x="512.09998"
   y="512.20001"
   width="128"
   height="128"
   id="rect914"
   style="fill:#fdec0a" />
	<polygon
   points="768,768 640,768 512.1,640 640,640 640,512.2 768,640 "
   id="polygon916"
   style="fill:#be2026" />
	<polygon
   points="128.1,640 0,640 0,512.2 0,384.2 128.1,512.2 "
   id="polygon918"
   style="fill:#be2026" />
	<rect
   x="128.10001"
   y="512.20001"
   width="128"
   height="128"
   id="rect920"
   style="fill:#fdec0a" />
	<polygon
   points="384,768 256,768 128.1,640 256,640 256,512.2 384,640 "
   id="polygon922"
   style="fill:#be2026" />
	<rect
   x="384"
   y="640"
   width="128"
   height="128"
   id="rect924"
   style="fill:#fdec0a" />
	<polygon
   points="512.1,768 512.1,640 640,768 "
   id="polygon926"
   style="fill:#be2026" />
	<rect
   y="640"
   width="128"
   height="128"
   id="rect928"
   x="0"
   style="fill:#fdec0a" />
	<polygon
   points="128.1,768 128.1,640 256,768 "
   id="polygon930"
   style="fill:#be2026" />
	<polygon
   points="512.1,512.2 384,384.2 512.1,384.2 640,512.2 "
   id="polygon932"
   style="fill:#010101" />
	<polygon
   points="256,384.2 128.1,256.3 256,256.3 384,384.2 "
   id="polygon934"
   style="fill:#010101" />
	<polygon
   points="0,256.3 0,128.4 128.1,256.3 "
   id="polygon936"
   style="fill:#010101" />
	<polygon
   points="640,512.2 768,512.2 768,640 "
   id="polygon938"
   style="fill:#010101" />
	<polygon
   points="384,640 256,512.2 384,512.2 512.1,640 "
   id="polygon940"
   style="fill:#010101" />
	<polygon
   points="128.1,512.2 0,384.2 128.1,384.2 256,512.2 "
   id="polygon942"
   style="fill:#010101" />
	<polygon
   points="640,768 512.1,640 640,640 768,768 "
   id="polygon944"
   style="fill:#010101" />
	<polygon
   points="0,640 0,512.2 128.1,640 "
   id="polygon946"
   style="fill:#010101" />
	<polygon
   points="256,768 128.1,640 256,640 384,768 "
   id="polygon948"
   style="fill:#010101" />
	<path
   d="m 307.3,462.1 v 33.1 h -28.4 v -91 h 38.9 c 9.7,0 17.1,1.1 22.1,3.4 5,2.2 9.1,5.6 12,10.2 2.9,4.6 4.5,9.7 4.5,15.4 0,8.7 -3,15.6 -9.1,21 -6,5.4 -14.1,8 -24.3,8 h -15.8 v -0.1 z m -0.4,-19.5 h 9.4 c 8.3,0 12.3,-3 12.3,-9.1 0,-5.7 -3.8,-8.5 -11.4,-8.5 h -10.3 z"
   id="path950"
   inkscape:connector-curvature="0"
   style="fill:#010101" />
	<path
   d="m 451.7,484.1 h -25.5 v -67.7 h 22.1 v 14 c 2.6,-10.2 8.4,-15.3 17.7,-15.3 0.9,0 2.2,0.1 3.9,0.2 V 439 c -1.9,-0.4 -3.6,-0.7 -5,-0.7 -8.8,0 -13.2,4.9 -13.2,14.8 z"
   id="path952"
   inkscape:connector-curvature="0"
   style="fill:#ffffff" />
	<path
   d="m 575.6,484.9 c -11.3,0 -20.2,-3.5 -26.8,-10.5 -6.6,-7 -9.9,-15.2 -9.9,-24.6 0,-10.2 3.5,-18.6 10.4,-25.4 6.9,-6.7 15.9,-10.2 26.9,-10.2 11.2,0 20.1,3.4 26.9,9.9 6.8,6.7 10.2,15 10.2,25 0,10.2 -3.5,18.6 -10.3,25.4 -6.9,7.1 -16,10.4 -27.4,10.4 z m 0.4,-16.1 c 4.1,0 6.7,-2.1 7.6,-6.5 0.9,-4.2 1.3,-8.7 1.3,-13.4 0,-6.4 -0.7,-11 -1.9,-13.7 -1.3,-2.8 -3.6,-4.2 -6.9,-4.2 -3,0 -5.4,1.5 -6.7,4.4 -1.5,2.9 -2.1,7.6 -2.1,14.3 0,7.8 0.8,13 2.2,15.4 1.4,2.5 3.6,3.7 6.5,3.7 z"
   id="path954"
   inkscape:connector-curvature="0"
   style="fill:#ffffff" />
</g>
</svg>