<?xml version="1.0" encoding="utf-8"?>
<!-- Generator: Adobe Illustrator 18.1.1, SVG Export Plug-In . SVG Version: 6.00 Build 0)  -->
<svg version="1.1" id="Слой_1" xmlns="http://www.w3.org/2000/svg" xmlns:xlink="http://www.w3.org/1999/xlink" x="0px" y="0px"
	 viewBox="0 0 768 768" enable-background="new 0 0 768 768" xml:space="preserve">
<g>
	<rect fill="#2F2F82" width="768" height="767.6"/>
	<polygon fill="#FFFFFF" points="768,640 768,512.2 640,512.2 	"/>
	<rect x="128.1" y="128.4" fill="#FDEC0A" width="128" height="128"/>
	<polygon fill="#BE2026" points="256,128.4 384,256.3 384,384.2 256,384.2 128.1,256.3 256,256.3 	"/>
	<rect x="384" y="256.3" fill="#FDEC0A" width="128" height="128"/>
	<polygon fill="#BE2026" points="512.1,256.3 640,384.2 640,512.2 512.1,512.2 384,384.2 512.1,384.2 	"/>
	<rect x="640" y="384.2" fill="#FDEC0A" width="128" height="128"/>
	<polygon fill="#BE2026" points="0,0.4 128.1,128.4 128.1,256.3 0,256.3 0,128.4 	"/>
	<rect y="256.3" fill="#FDEC0A" width="128" height="128"/>
	<polygon fill="#BE2026" points="128.1,256.3 256,384.2 256,512.2 128.1,512.2 0,384.2 128.1,384.2 	"/>
	<rect x="256" y="384.2" fill="#FDEC0A" width="128" height="128"/>
	<polygon fill="#BE2026" points="384,384.2 512.1,512.2 512.1,640 384,640 256,512.2 384,512.2 	"/>
	<rect x="512.1" y="512.2" fill="#FDEC0A" width="128" height="128"/>
	<polygon fill="#BE2026" points="640,512.2 768,640 768,768 640,768 512.1,640 640,640 	"/>
	<polygon fill="#BE2026" points="0,384.2 128.1,512.2 128.1,640 0,640 0,512.2 	"/>
	<rect x="128.1" y="512.2" fill="#FDEC0A" width="128" height="128"/>
	<polygon fill="#BE2026" points="256,512.2 384,640 384,768 256,768 128.1,640 256,640 	"/>
	<rect x="384" y="640" fill="#FDEC0A" width="128" height="128"/>
	<polygon fill="#BE2026" points="512.1,640 640,768 512.1,768 	"/>
	<rect y="640" fill="#FDEC0A" width="128" height="128"/>
	<polygon fill="#BE2026" points="128.1,640 256,768 128.1,768 	"/>
	<polygon fill="#010101" points="512.1,384.2 640,512.2 512.1,512.2 384,384.2 	"/>
	<polygon fill="#010101" points="256,256.3 384,384.2 256,384.2 128.1,256.3 	"/>
	<polygon fill="#010101" points="0,128.4 128.1,256.3 0,256.3 	"/>
	<polygon fill="#010101" points="768,512.2 768,640 640,512.2 	"/>
	<polygon fill="#010101" points="384,512.2 512.1,640 384,640 256,512.2 	"/>
	<polygon fill="#010101" points="128.1,384.2 256,512.2 128.1,512.2 0,384.2 	"/>
	<polygon fill="#010101" points="640,640 768,768 640,768 512.1,640 	"/>
	<polygon fill="#010101" points="0,512.2 128.1,640 0,640 	"/>
	<polygon fill="#010101" points="256,640 384,768 256,768 128.1,640 	"/>
	<path fill="#010101" d="M307.3,462.1v33.1h-28.4v-91h38.9c9.7,0,17.1,1.1,22.1,3.4c5,2.2,9.1,5.6,12,10.2c2.9,4.6,4.5,9.7,4.5,15.4
		c0,8.7-3,15.6-9.1,21c-6,5.4-14.1,8-24.3,8h-15.8V462.1z M306.9,442.6h9.4c8.3,0,12.3-3,12.3-9.1c0-5.7-3.8-8.5-11.4-8.5h-10.3
		L306.9,442.6L306.9,442.6z"/>
	<path fill="#FFFFFF" d="M451.7,484.1h-25.5v-67.7h22.1v14c2.6-10.2,8.4-15.3,17.7-15.3c0.9,0,2.2,0.1,3.9,0.2V439
		c-1.9-0.4-3.6-0.7-5-0.7c-8.8,0-13.2,4.9-13.2,14.8L451.7,484.1L451.7,484.1z"/>
	<path fill="#FFFFFF" d="M575.6,484.9c-11.3,0-20.2-3.5-26.8-10.5c-6.6-7-9.9-15.2-9.9-24.6c0-10.2,3.5-18.6,10.4-25.4
		c6.9-6.7,15.9-10.2,26.9-10.2c11.2,0,20.1,3.4,26.9,9.9c6.8,6.7,10.2,15,10.2,25c0,10.2-3.5,18.6-10.3,25.4
		C596.1,481.6,587,484.9,575.6,484.9z M576,468.8c4.1,0,6.7-2.1,7.6-6.5c0.9-4.2,1.3-8.7,1.3-13.4c0-6.4-0.7-11-1.9-13.7
		c-1.3-2.8-3.6-4.2-6.9-4.2c-3,0-5.4,1.5-6.7,4.4c-1.5,2.9-2.1,7.6-2.1,14.3c0,7.8,0.8,13,2.2,15.4
		C570.9,467.6,573.1,468.8,576,468.8z"/>
</g>
</svg>
