<?xml version="1.0" encoding="utf-8"?>
<!-- Generator: Adobe Illustrator 18.1.1, SVG Export Plug-In . SVG Version: 6.00 Build 0)  -->
<svg version="1.1" id="Слой_1" xmlns="http://www.w3.org/2000/svg" xmlns:xlink="http://www.w3.org/1999/xlink" x="0px" y="0px"
	 viewBox="0 0 768 768" enable-background="new 0 0 768 768" xml:space="preserve">
<g>
	<rect fill="#2F2F82" width="768" height="768"/>
	<rect y="128" fill="#FDEC0A" width="256" height="256"/>
	<polygon fill="#010101" points="0,384 255.9,640 512,640 512,384 255.9,128 255.9,384 	"/>
	<g>
		<path fill="#010101" d="M61,287.4l42.5-7.6c3.6,12.1,12.7,18,27.5,18c11.5,0,17.2-3,17.2-9.2c0-3.2-1.3-5.7-4-7.5
			s-7.4-3.4-14.3-4.7c-26.2-5-42.9-11.5-50.4-19.7c-7.4-8-11.2-17.5-11.2-28.5c0-14.1,5.4-25.7,16-35.1c10.6-9.3,26-14,46-14
			c30.4,0,50.4,12.2,60.2,36.5l-37.9,11.5c-3.9-9.9-12-15-23.9-15c-9.9,0-15,3.1-15,9.3c0,2.8,1.1,4.9,3.4,6.5
			c2.2,1.6,6.6,3,13.1,4.4c17.9,3.8,30.5,7.2,38,10.1c7.5,2.9,13.7,7.8,18.8,14.9c5,7,7.5,15.3,7.5,24.9c0,15.1-6.1,27.3-18.3,36.7
			C164,328.3,147.9,333,128,333C92,332.8,69.6,317.7,61,287.4z"/>
	</g>
	<rect x="384" y="512" fill="#BE2026" width="128" height="128"/>
	<path fill="#FFFFFF" d="M499.3,610.6h-25.8v-42.4c0-2.8-0.4-4.8-1.2-5.9c-0.8-1.1-2.2-1.7-4.4-1.7c-5,0-7.5,3.6-7.5,10.8v39.2H435
		v-42.4c0-5.5-2.1-8.2-6.3-8.2c-4.4,0-6.5,2.7-6.5,8.2v42.4h-25.6v-67.9h23.9v9.2c4.2-7,10.5-10.5,18.6-10.5
		c8.7,0,15.1,3.5,19.1,10.5c4.4-7,11.2-10.5,20.2-10.5c4.4,0,8.2,0.9,11.5,2.7c3.4,1.8,5.7,4.1,7.2,7s2.2,7.3,2.2,13.3L499.3,610.6
		L499.3,610.6z"/>
	<rect x="384" y="192" fill="#FFFFFF" width="192" height="192"/>
	<polygon fill="#010101" points="768,576 768,384 576,192 576,384 384,384 512,512 512,640 384,640 512,768 639.9,768 639.9,640 
		512.5,512.5 576,576 	"/>
	<path fill="#2F2F82" d="M532.9,323.7h-26.6V280c0-2.9-0.4-5-1.2-6.1c-0.9-1.1-2.3-1.8-4.5-1.8c-5.1,0-7.7,3.7-7.7,11.2v40.3h-26.3
		v-43.7c0-5.6-2.1-8.4-6.5-8.4c-4.5,0-6.7,2.8-6.7,8.4v43.7H427v-69.8h24.6v9.4c4.4-7.3,10.7-10.8,19.1-10.8
		c9.1,0,15.5,3.6,19.7,10.8c4.6-7.3,11.5-10.8,20.9-10.8c4.5,0,8.4,0.9,11.8,2.8c3.5,1.9,5.9,4.2,7.4,7.3c1.6,2.9,2.3,7.5,2.3,13.7
		L532.9,323.7L532.9,323.7z"/>
</g>
</svg>
