<?xml version="1.0" encoding="utf-8"?>
<!-- Generator: Adobe Illustrator 18.1.1, SVG Export Plug-In . SVG Version: 6.00 Build 0)  -->
<svg version="1.1" id="Слой_1" xmlns="http://www.w3.org/2000/svg" xmlns:xlink="http://www.w3.org/1999/xlink" x="0px" y="0px"
	 viewBox="0 0 595.3 787.1" enable-background="new 0 0 595.3 787.1" xml:space="preserve">
<g>
	<rect x="207.8" y="303.4" fill="#2B3990" width="179.5" height="179.5"/>
	<rect x="207.8" y="333.3" fill="#FDEC0A" width="59.8" height="59.8"/>
	<polygon points="207.8,393.1 267.6,452.9 327.5,452.9 327.5,393.1 267.6,333.3 267.6,393.1 	"/>
	<g>
		<path d="M222.1,370.5l9.9-1.8c0.8,2.8,3,4.2,6.4,4.2c2.7,0,4-0.7,4-2.1c0-0.7-0.3-1.3-0.9-1.7c-0.6-0.4-1.7-0.8-3.3-1.1
			c-6.1-1.2-10-2.7-11.8-4.6c-1.7-1.9-2.6-4.1-2.6-6.7c0-3.3,1.2-6,3.7-8.2c2.5-2.2,6.1-3.3,10.8-3.3c7.1,0,11.8,2.9,14.1,8.6
			l-8.9,2.7c-0.9-2.3-2.8-3.5-5.6-3.5c-2.3,0-3.5,0.7-3.5,2.2c0,0.6,0.3,1.1,0.8,1.5c0.5,0.4,1.5,0.7,3.1,1c4.2,0.9,7.1,1.7,8.9,2.3
			c1.8,0.7,3.2,1.8,4.4,3.5c1.2,1.6,1.8,3.6,1.8,5.8c0,3.5-1.4,6.4-4.3,8.6c-2.9,2.2-6.6,3.3-11.3,3.3
			C229.3,381.2,224.1,377.6,222.1,370.5z"/>
	</g>
	<rect x="297.5" y="423" fill="#BE2026" width="29.9" height="29.9"/>
	<polygon points="297.5,452.9 327.5,482.9 357.4,482.9 357.4,452.9 327.5,423 327.5,452.9 	"/>
	<path fill="#FFFFFF" d="M324.5,446.1h-6v-9.9c0-0.7-0.1-1.1-0.3-1.4c-0.2-0.3-0.5-0.4-1-0.4c-1.2,0-1.7,0.8-1.7,2.5v9.2h-6v-9.9
		c0-1.3-0.5-1.9-1.5-1.9c-1,0-1.5,0.6-1.5,1.9v9.9h-6v-15.8h5.6v2.1c1-1.6,2.4-2.5,4.3-2.5c2,0,3.5,0.8,4.5,2.5
		c1-1.6,2.6-2.5,4.7-2.5c1,0,1.9,0.2,2.7,0.6c0.8,0.4,1.3,1,1.7,1.6c0.3,0.7,0.5,1.7,0.5,3.1V446.1z"/>
	<rect x="297.5" y="348.2" fill="#FFFFFF" width="44.9" height="44.9"/>
	<polygon points="297.5,393.1 342.4,438 387.3,438 387.3,393.1 342.4,348.2 342.4,393.1 	"/>
	<path fill="#2B3990" d="M332.3,379h-6.2v-10.2c0-0.7-0.1-1.2-0.3-1.4c-0.2-0.3-0.5-0.4-1.1-0.4c-1.2,0-1.8,0.9-1.8,2.6v9.4h-6.1
		v-10.2c0-1.3-0.5-2-1.5-2c-1,0-1.6,0.7-1.6,2V379h-6.2v-16.3h5.7v2.2c1-1.7,2.5-2.5,4.5-2.5c2.1,0,3.6,0.8,4.6,2.5
		c1.1-1.7,2.7-2.5,4.9-2.5c1,0,2,0.2,2.8,0.7c0.8,0.4,1.4,1,1.7,1.7c0.4,0.7,0.5,1.8,0.5,3.2V379z"/>
</g>
</svg>
