<?xml version="1.0" encoding="utf-8"?>
<!-- Generator: Adobe Illustrator 18.1.1, SVG Export Plug-In . SVG Version: 6.00 Build 0)  -->
<svg version="1.1" id="Слой_1" xmlns="http://www.w3.org/2000/svg" xmlns:xlink="http://www.w3.org/1999/xlink" x="0px" y="0px"
	 viewBox="0 0 595.3 787.1" enable-background="new 0 0 595.3 787.1" xml:space="preserve">
<g>
	<polygon fill="#BE2026" points="415.9,511.2 376.4,511.2 337,392.8 297.5,432.3 297.5,511.2 258.1,511.2 258.1,274.5 415.9,274.5 	
		"/>
	<polygon fill="#2F2F82" points="218.6,274.5 258.1,313.9 258.1,392.8 218.6,392.8 	"/>
	<polygon fill="#2F2F82" points="337,392.8 376.4,432.3 376.4,511.2 337,511.2 	"/>
	<polygon fill="#2F2F82" points="218.6,432.3 218.6,511.2 258.1,511.2 258.1,452 	"/>
	<polyline fill="#010101" points="218.6,432.3 258.1,452 297.5,452 297.5,432.3 	"/>
	<polygon fill="#FFFFFF" points="297.5,392.8 258.1,392.8 258.1,392.8 218.6,392.8 218.6,313.9 258.1,313.9 258.1,274.5 
		218.6,274.5 202.5,274.5 179.2,274.5 179.2,313.9 179.2,313.9 179.2,392.8 179.2,432.3 179.2,511.2 218.6,511.2 218.6,432.3 
		258.1,432.3 258.1,432.3 297.5,432.3 297.5,471.7 297.5,471.7 297.5,511.2 337,511.2 337,471.7 337,471.7 337,432.3 337,432.3 
		337,392.8 	"/>
	<polygon fill="#010101" points="258.1,353.7 297.5,353.7 258.1,313.9 218.6,313.9 	"/>
	<polygon fill="#2F2F82" points="258.1,274.5 297.5,314.3 297.5,353.7 258.1,313.9 	"/>
	<rect x="297.5" y="314.1" fill="#FDEC0A" width="39.4" height="39.4"/>
	<polygon fill="#2F2F82" points="376.4,392.8 376.4,353.7 337,314.1 337,353.5 	"/>
	<polygon fill="#010101" points="337,353.5 376.4,392.8 337,392.8 297.5,353.5 	"/>
	<g>
		<path fill="#010101" d="M232.6,405.4v21.3h-8.2v-21.3h-5.8v-6.7h19.8v6.7H232.6z"/>
		<path fill="#010101" d="M261.1,426.7h-8.2v-12.6c0-1.1-0.1-1.9-0.4-2.4s-0.7-0.6-1.5-0.6c-0.6,0-1,0.2-1.5,0.5
			c-0.4,0.3-0.7,0.7-0.7,1c-0.1,0.4-0.1,1.1-0.1,2.2v11.8h-8.2v-28h8.2v9.6c1.5-1.9,3.4-2.9,5.8-2.9c1.2,0,2.3,0.2,3.2,0.6
			c0.9,0.4,1.6,1,2.1,1.6c0.5,0.7,0.8,1.3,1,1.9c0.2,0.6,0.3,1.8,0.3,3.6L261.1,426.7L261.1,426.7z"/>
		<path fill="#010101" d="M273.6,397.8v6.5h-8.2v-6.5H273.6z M273.6,405.9v20.9h-8.2v-20.9H273.6z"/>
		<path fill="#010101" d="M298.4,426.7h-8.2v-13.1c0-1.1-0.2-1.8-0.5-2.1c-0.3-0.3-0.8-0.4-1.3-0.4c-1.5,0-2.2,1-2.2,3.1v12.6h-8.2
			v-20.9h7.6v3c1.1-2.3,3.1-3.4,6-3.4c1.5,0,2.8,0.3,3.9,0.9c1,0.6,1.8,1.3,2.3,2.3c0.4,0.9,0.7,2.5,0.7,4.8L298.4,426.7
			L298.4,426.7z"/>
		<path fill="#010101" d="M324.4,401.1l-0.2,5.6l-0.4,0c-0.7,0-1.3-0.1-1.6-0.1c-1.3,0-2,0.3-2.3,0.8c1.6,1.3,2.3,2.8,2.3,4.7
			c0,2.1-0.8,3.7-2.5,4.8c-1.7,1.1-4,1.6-6.9,1.6c-0.1,0-0.4,0-1.1,0c-0.6,0-0.9,0-0.9,0c-1.3,0-2,0.3-2,1c0,0.6,0.6,0.9,1.8,1
			l6.7,0.3c2.4,0.1,4.2,0.8,5.4,2.1c1.1,1.3,1.7,2.7,1.7,4.4c0,2-0.9,3.6-2.6,4.9c-1.7,1.3-5,1.9-10,1.9c-7.6,0-11.4-1.7-11.4-5.2
			c0-1.9,1-3.2,3-4c-1.3-0.9-2-2-2-3.3c0-2.1,1.3-3.6,4-4.6c-2.2-1-3.3-2.6-3.3-4.9c0-2.1,0.9-3.7,2.7-4.8c1.8-1.1,4.3-1.7,7.4-1.7
			c1.4,0,2.7,0.1,3.9,0.4c0.5-3.3,2.2-4.9,5.2-4.9C322.2,400.9,323.2,401,324.4,401.1z M310.3,426.5c-0.3,0-0.6,0-0.9,0
			c-1.4,0-2.1,0.4-2.1,1.3c0,0.8,0.5,1.3,1.6,1.6c1.1,0.2,2.5,0.3,4.3,0.3c1.7,0,2.8-0.1,3.3-0.4s0.7-0.7,0.7-1.2
			c0-0.4-0.1-0.7-0.3-0.9c-0.2-0.2-0.7-0.4-1.6-0.4L310.3,426.5z M312.4,414.6c1.6,0,2.4-0.8,2.4-2.5c0-1.7-0.8-2.6-2.4-2.6
			c-1.6,0-2.4,0.9-2.4,2.6C310,413.8,310.8,414.6,312.4,414.6z"/>
	</g>
</g>
</svg>
