<?xml version="1.0" encoding="utf-8"?>
<!-- Generator: Adobe Illustrator 18.1.1, SVG Export Plug-In . SVG Version: 6.00 Build 0)  -->
<svg version="1.1" id="Слой_1" xmlns="http://www.w3.org/2000/svg" xmlns:xlink="http://www.w3.org/1999/xlink" x="0px" y="0px"
	 viewBox="0 0 767 671.4" enable-background="new 0 0 767 671.4" xml:space="preserve">
<rect x="-178.9" y="230.4" fill="#2F2F82" width="1124.9" height="210.6"/>
<g>
	<rect x="383.5" y="272.4" fill="#FFFFFF" width="126.6" height="126.6"/>
	<rect x="214.9" y="230.4" fill="#FDEC0A" width="126.6" height="126.6"/>
	<polygon fill="#141415" points="510.2,399 552.2,441 552.2,314.4 510.2,272.4 	"/>
	<polygon fill="#BE2026" points="341.5,357 383.5,399 383.5,272.4 341.5,230.4 	"/>
	<path fill="#010101" d="M510.2,399c0,0-11.3,0-9.9,0v-18.3c-2.7,0.7-5.1,1.1-7.1,1.1c-1.3,0-2.5-0.3-3.7-0.9
		c-1.2-0.6-1.8-2.5-1.8-5.7v-23.3h12.6v-16.1h-12.6v-20.9l-23.5,0.4l-0.4,20.6h-9.4v16.1h9.4v19.9l-0.1,7.4c0,7.2,1.8,12.4,5.4,15.6
		c2.1,2,5,3.3,8.6,4.1h-22.4l0.3,0L433,364.6l18.5-28.7h-20.4l-6.5,11.1c-0.4,0.7-0.6,1.1-0.7,1.3c-0.7,1.2-1.2,2.1-1.7,2.9
		c-0.4-0.7-0.7-1.3-0.9-1.6c-0.4-0.7-0.8-1.3-1.1-1.9l-6.5-11.8h-27.5l19.4,29.7L383.5,399l0.1,0h-0.1l-42-42h-22.8
		c4.6-1.1,8.5-2.9,11.7-5.4c5.6-4.4,9.1-9.7,10.5-15.9l-23.1-1.6c-1,5.2-4.1,7.8-9.5,7.8c-3.7,0-6.3-1-7.6-2.9
		c-1.3-1.9-2-4.9-2.1-8.8H341c0-1.5,0.1-2.7,0.1-3.6c0-10.6-3.1-18.9-9.3-25c-6.2-6.1-14.4-9.2-24.5-9.2c-10.4,0-18.8,3.3-25,9.7
		c-6.3,6.5-9.4,14.5-9.4,23.9c0,9.1,3.2,16.7,9.5,22.9c4.1,4,9.1,6.7,15,8.1h-40.1v-64.4h17.6v-20.3h-59.8v20.3h17.6V357h-17.6
		l84,84h253.3L510.2,399z M307.4,307c2.5,0,4.5,0.7,6.2,2.2c1.7,1.5,2.5,4.3,2.6,8.6h-17.6C298.6,310.6,301.6,307,307.4,307z
		 M403.7,399l12.4-20.2l11.6,20.2H403.7z"/>
</g>
<text transform="matrix(0.9996 0 0 1 -72.8228 349.171)" fill="#FFFFFF" font-family="'Montserrat-ExtraBold'" font-size="42.9782">Read more</text>
<text transform="matrix(0.9996 0 0 1 575.6604 349.1713)" fill="#FFFFFF" font-family="'Montserrat-ExtraBold'" font-size="42.9782">about dezign</text>
</svg>
