<?xml version="1.0" encoding="utf-8"?>
<!-- Generator: Adobe Illustrator 18.1.1, SVG Export Plug-In . SVG Version: 6.00 Build 0)  -->
<svg version="1.1" id="Слой_1" xmlns="http://www.w3.org/2000/svg" xmlns:xlink="http://www.w3.org/1999/xlink" x="0px" y="0px"
	 viewBox="0 0 768 768" enable-background="new 0 0 768 768" xml:space="preserve">
<g>
	<g>
		<g>
			<polygon fill="#2F2F82" points="383.9,0 640,256 640,512 512,512 640,640 640,768 768,768 768,0 			"/>
			<polygon fill="#2F2F82" points="128,384 256,384 128,256 128,0 0,0 0,768 128,768 			"/>
			<polygon fill="#010101" points="128,256 256,384 383.9,384 512,512 640,512 383.9,256 			"/>
			<rect x="128" fill="#FDEC0A" width="256.1" height="256"/>
			<polygon fill="#FFFFFF" points="383.9,256 640,512 640,256 383.9,0 			"/>
			<path fill="#FFFFFF" d="M383.9,256L640,512L383.9,256z"/>
			<polygon fill="#BE2026" points="256,384 128,384 128,768 383.9,768 383.9,512 383.9,384 			"/>
			<polygon fill="#FFFFFF" points="512,512 383.9,384 383.9,512 383.9,768 640,768 640,640 			"/>
		</g>
	</g>
	<g>
		<path fill="#010101" d="M465.5,743.7h-24.9v-9.1c-3.7,6.9-9.8,10.4-18.3,10.4c-7.8,0-14.2-3-19-9.2c-4.9-6.1-7.3-15-7.3-26.7
			c0-10.8,2.5-19.6,7.4-25.9c4.9-6.4,11.4-9.6,19.4-9.6c6.7,0,12.3,2.6,16.7,7.7v-28.7h26.3v91.1H465.5z M439.3,700.2
			c0-6.1-2.5-9.2-7.5-9.2c-3.5,0-5.8,1.9-6.9,5.8c-1.1,3.9-1.7,8.6-1.7,14.2c0,11,2.8,16.4,8.4,16.4c2.1,0,3.9-0.9,5.5-2.6
			c1.5-1.8,2.2-4.4,2.2-7.9L439.3,700.2L439.3,700.2z"/>
		<path fill="#010101" d="M524.4,719.4l24.8,1.7c-1.5,6.7-5.3,12.4-11.3,17.1s-14.2,7-24.5,7c-11.4,0-20.6-3.4-27.4-9.9
			c-6.8-6.6-10.2-14.8-10.2-24.6c0-10.2,3.4-18.7,10.1-25.7c6.7-6.9,15.6-10.5,26.9-10.5c10.8,0,19.7,3.2,26.4,9.8
			c6.7,6.6,10.1,15.5,10.1,26.9c0,0.9,0,2.2-0.1,3.9h-45.5c0.1,4.2,0.9,7.5,2.2,9.5c1.5,2,4.1,3.1,8.2,3.1
			C520,727.8,523.3,725,524.4,719.4z M522.5,701.8c0-4.6-1-7.7-2.8-9.3c-1.8-1.6-4-2.3-6.7-2.3c-6.3,0-9.4,3.9-9.4,11.6L522.5,701.8
			L522.5,701.8z"/>
		<path fill="#010101" d="M628.1,743.7h-25.4c-0.7-2.9-0.9-6-0.9-9.5c-4.8,7.3-12.1,10.8-21.8,10.8c-8,0-14-2-18-6.1
			c-4-4.1-5.9-8.8-5.9-14.1c0-7.2,3.2-13,9.7-17.4c6.5-4.5,18.1-7,34.6-7.9v-1.6c0-3-0.7-4.9-2-5.9s-3.4-1.5-5.9-1.5
			c-6.1,0-9.6,2.5-10.3,7.4l-24.3-2.2c3.5-14.2,15.3-21.2,35.4-21.2c5.5,0,10.5,0.6,15.1,1.7c4.6,1.1,8.2,2.8,10.8,5.1
			c2.7,2.3,4.5,4.8,5.4,7.4c0.9,2.6,1.3,7.5,1.3,14.9v27C626,735.7,626.7,740.2,628.1,743.7z M600.5,712c-11.3,1.2-17,4.8-17,10.8
			c0,4.1,2.2,6.1,6.7,6.1c2.8,0,5.3-0.9,7.3-2.6c2-1.7,3-5.5,3-11.2V712z"/>
	</g>
</g>
</svg>
